<?xml version="1.0" encoding="utf-8"?>
<!-- Generator: Adobe Illustrator 27.0.0, SVG Export Plug-In . SVG Version: 6.00 Build 0)  -->
<svg version="1.1" id="Capa_1" xmlns="http://www.w3.org/2000/svg" xmlns:xlink="http://www.w3.org/1999/xlink" x="0px" y="0px"
	 viewBox="0 0 1080 1080" style="enable-background:new 0 0 1080 1080;" xml:space="preserve">
<style type="text/css">
	.st0{fill:#06FCC1;}
	.st1{fill:#182130;}
	.st2{fill:#FFFFFF;}
	.st3{fill:none;stroke:#182130;stroke-width:3;stroke-miterlimit:10;}
	.st4{fill:none;stroke:#000000;stroke-width:3;stroke-miterlimit:10;}
	.st5{fill:none;stroke:#06FCC1;stroke-width:3;stroke-miterlimit:10;}
	.st6{fill:none;stroke:#F7F7F7;stroke-width:3;stroke-miterlimit:10;}
	.st7{fill:#F7F7F7;}
	.st8{fill:#F4F4F4;}
</style>
<rect x="2296.89" y="1536.5" class="st0" width="1080" height="1080"/>
<g>
	<g>
		<path d="M2731.33,1941.62l-47.24,51.13h116.22c19.61,0,26.75-3.16,34.37-10.55l0.02-0.02l-41.42,44.32h102.32
			c4.17,0,7.54-3.5,7.54-7.87v-53.71c0-4.37-3.38-7.9-7.54-7.9h-24.51c-9.28,0-18.05,6.02-19.26,6.88l30.24-32.26h-129.09
			C2745.02,1931.65,2737.33,1935.19,2731.33,1941.62z"/>
		<path d="M3048.04,1862.14h-95.88c-3.08,0-5.99,1.18-7.9,3.2c-0.15,0.16-0.49,0.52-0.49,0.52l-12.06,12.81l-49.66,52.98h165.98
			c5.54,0,10.03-3.74,10.03-8.35v-52.81C3058.07,1865.87,3053.58,1862.14,3048.04,1862.14z"/>
		<path d="M2652.07,2058.45v-31.69l-36.36,0.04v40.47v12.47c0,4.37,3.38,7.9,7.54,7.9h91.22h16.95c3.09,0,6.04-1.28,8.14-3.54
			l11.69-12.54l42.02-45.06h-73.45C2663.31,2026.5,2652.07,2058.45,2652.07,2058.45z"/>
	</g>
	<g>
		<polygon points="2486.69,2207.17 2531.22,2207.17 2534.55,2188.46 2468.27,2188.46 2450.28,2289.99 2472.04,2289.99 
			2479.29,2248.79 2515.7,2248.79 2518.89,2230.95 2482.48,2230.95 		"/>
		<path d="M2592.14,2269.53c0-0.58,0.15-1.74,0.43-3.05l3.77-21.32c0.44-2.61,0.72-5.08,0.72-7.4c0-16.1-12.91-23.21-30.31-23.21
			c-20.45,0-32.64,7.83-36.84,24.08h20.45c1.74-5.22,4.93-9.14,14.94-9.14c6.96,0,11.89,2.9,11.89,8.27c0,1.02-0.15,2.47-0.44,3.63
			l-0.43,2.76h-17.99c-21.61,0-34.96,8.12-34.96,25.96c0,13.92,11.75,20.74,25.82,20.74c11.02,0,17.99-3.63,23.93-10.59v0.15
			c0,5.37,3.77,9.57,12.47,9.57h9.86l3.05-17.26h-2.9C2593.15,2272.73,2592.14,2271.57,2592.14,2269.53z M2573.72,2258.95
			c-1.74,9.43-8.41,17.11-19.87,17.11c-5.51,0-9.72-2.9-9.72-7.98c0-7.11,4.93-10.3,14.65-10.3h15.08L2573.72,2258.95z"/>
		<path d="M2646.96,2228.92c8.12,0,12.91,3.48,12.91,9.86h19.29c0-16.1-14.07-24.37-32.05-24.37c-20.02,0-33.94,8.85-33.94,24.8
			c0,14.94,14.36,18.42,28.28,20.74c8.85,1.45,13.92,3.05,13.92,7.69c0,5.8-5.66,8.56-15.08,8.56c-7.83,0-13.78-3.48-14.07-11.31
			h-19c0,17.41,13.49,25.96,32.49,25.96c19.44,0,35.83-7.69,35.83-25.67c0-15.95-15.81-19.58-29.88-21.47
			c-7.4-1.02-12.62-2.61-12.62-6.96C2633.04,2231.97,2638.26,2228.92,2646.96,2228.92z"/>
		<path d="M2727.17,2194.55h-20.45l-3.63,20.89h-12.33l-3.05,17.26h12.33l-6.09,34.52c-0.43,2.61-0.72,4.64-0.72,6.38
			c0,10.88,6.82,16.39,19.58,16.39h15.09l3.05-17.26h-10.88c-4.21,0-5.66-1.45-5.66-4.35c0-0.73,0.15-2.03,0.29-2.9l5.8-32.78h16.97
			l3.04-17.26h-16.97L2727.17,2194.55z"/>
		<rect x="2787.65" y="2188.46" width="12.62" height="101.53"/>
		<path d="M2859.73,2215.14c-11.75,0-19.87,5.08-24.95,10.44l0.15-9.57h-10.3l-13.05,73.97h11.9l6.53-36.55
			c3.04-16.68,12.76-27.41,26.98-27.41c10.44,0,16.1,5.8,16.1,15.08c0,3.63-0.43,6.24-0.87,8.7l-7.11,40.18h11.89l7.25-40.76
			c0.58-3.34,0.87-6.38,0.87-9.14C2885.12,2222.69,2873.95,2215.14,2859.73,2215.14z"/>
		<polygon points="2951.25,2216.01 2918.33,2276.93 2906.58,2216.01 2894.54,2216.01 2909.19,2289.99 2923.55,2289.99 
			2964.31,2216.01 		"/>
		<path d="M3003.91,2215.14c-23.5,0-41.48,18.57-41.48,43.8c0,18.42,12.91,31.91,32.2,31.91c23.5,0,41.48-18.57,41.48-43.8
			C3036.11,2228.63,3023.2,2215.14,3003.91,2215.14z M2995.64,2280.27c-12.33,0-21.18-8.85-21.18-21.9
			c0-17.55,11.02-32.64,28.43-32.64c12.33,0,21.18,8.85,21.18,21.9C3024.07,2265.18,3013.04,2280.27,2995.64,2280.27z"/>
		<polygon points="3042.78,2289.99 3054.67,2289.99 3067.72,2216.01 3055.83,2216.01 		"/>
		<path d="M3065.84,2188.16c-4.35,0-8.27,3.48-8.27,8.41c0,4.06,3.05,6.96,7.25,6.96c4.35,0,8.12-3.48,8.12-8.41
			C3072.95,2191.07,3070.04,2188.16,3065.84,2188.16z"/>
		<path d="M3113.99,2225.73c10.15,0,17.7,5.66,18.71,15.52h11.6c-0.43-15.52-11.17-26.11-29.3-26.11
			c-24.95,0-40.47,18.28-40.47,43.51c0,18.28,12.91,32.2,32.06,32.2c16.53,0,30.6-8.41,34.66-26.4h-12.04
			c-3.34,10.44-11.46,15.81-21.47,15.81c-12.62,0-21.18-8.85-21.18-22.34C3086.58,2240.67,3096.15,2225.73,3113.99,2225.73z"/>
		<path d="M3222.34,2255.76c0.87-3.77,1.16-7.54,1.16-11.75c0-17.26-11.31-28.86-29.73-28.86c-25.67,0-40.76,20.45-40.76,43.66
			c0,18.86,12.04,32.05,32.78,32.05c16.68,0,29.3-8.99,34.23-25.67h-12.04c-4.06,9.14-9.72,15.09-21.76,15.09
			c-14.94,0-21.18-10.44-21.18-21.76c0-0.87,0-1.74,0.15-2.76H3222.34z M3192.31,2225.59c11.31,0,18.42,6.38,18.42,17.26
			c0,1.01,0,1.59-0.15,2.61h-43.22C3170.41,2233.85,3179.98,2225.59,3192.31,2225.59z"/>
	</g>
</g>
<rect x="1130.67" y="1536.5" class="st1" width="1080" height="1080"/>
<g>
	<g>
		<path class="st2" d="M1565.11,1941.62l-47.24,51.13h116.22c19.61,0,26.75-3.16,34.37-10.55l0.02-0.02l-41.42,44.32h102.32
			c4.17,0,7.54-3.5,7.54-7.87v-53.71c0-4.37-3.38-7.9-7.54-7.9h-24.51c-9.28,0-18.05,6.02-19.26,6.88l30.24-32.26h-129.09
			C1578.79,1931.65,1571.11,1935.19,1565.11,1941.62z"/>
		<path class="st2" d="M1881.82,1862.14h-95.88c-3.08,0-5.99,1.18-7.9,3.2c-0.15,0.16-0.49,0.52-0.49,0.52l-12.06,12.81
			l-49.66,52.98h165.98c5.54,0,10.03-3.74,10.03-8.35v-52.81C1891.85,1865.87,1887.36,1862.14,1881.82,1862.14z"/>
		<path class="st2" d="M1485.85,2058.45l0-31.69l-36.36,0.04v40.47v12.47c0,4.37,3.38,7.9,7.54,7.9h91.22h16.95
			c3.09,0,6.04-1.28,8.14-3.54l11.69-12.54l42.02-45.06h-73.45C1497.09,2026.5,1485.85,2058.45,1485.85,2058.45z"/>
	</g>
	<g>
		<polygon class="st2" points="1320.47,2207.17 1365,2207.17 1368.33,2188.46 1302.05,2188.46 1284.06,2289.99 1305.82,2289.99 
			1313.07,2248.79 1349.47,2248.79 1352.67,2230.95 1316.26,2230.95 		"/>
		<path class="st2" d="M1425.91,2269.53c0-0.58,0.15-1.74,0.43-3.05l3.77-21.32c0.44-2.61,0.72-5.08,0.72-7.4
			c0-16.1-12.91-23.21-30.31-23.21c-20.45,0-32.64,7.83-36.84,24.08h20.45c1.74-5.22,4.93-9.14,14.94-9.14
			c6.96,0,11.89,2.9,11.89,8.27c0,1.02-0.15,2.47-0.44,3.63l-0.43,2.76h-17.99c-21.61,0-34.96,8.12-34.96,25.96
			c0,13.92,11.75,20.74,25.82,20.74c11.02,0,17.99-3.63,23.93-10.59v0.15c0,5.37,3.77,9.57,12.47,9.57h9.86l3.05-17.26h-2.9
			C1426.93,2272.73,1425.91,2271.57,1425.91,2269.53z M1407.49,2258.95c-1.74,9.43-8.41,17.11-19.87,17.11
			c-5.51,0-9.72-2.9-9.72-7.98c0-7.11,4.93-10.3,14.65-10.3h15.08L1407.49,2258.95z"/>
		<path class="st2" d="M1480.74,2228.92c8.12,0,12.91,3.48,12.91,9.86h19.29c0-16.1-14.07-24.37-32.05-24.37
			c-20.02,0-33.94,8.85-33.94,24.8c0,14.94,14.36,18.42,28.28,20.74c8.85,1.45,13.92,3.05,13.92,7.69c0,5.8-5.66,8.56-15.09,8.56
			c-7.83,0-13.78-3.48-14.07-11.31h-19c0,17.41,13.49,25.96,32.49,25.96c19.44,0,35.83-7.69,35.83-25.67
			c0-15.95-15.81-19.58-29.88-21.47c-7.4-1.02-12.62-2.61-12.62-6.96C1466.81,2231.97,1472.04,2228.92,1480.74,2228.92z"/>
		<path class="st2" d="M1560.94,2194.55h-20.45l-3.63,20.89h-12.33l-3.05,17.26h12.33l-6.09,34.52c-0.43,2.61-0.72,4.64-0.72,6.38
			c0,10.88,6.82,16.39,19.58,16.39h15.09l3.05-17.26h-10.88c-4.21,0-5.66-1.45-5.66-4.35c0-0.73,0.15-2.03,0.29-2.9l5.8-32.78h16.97
			l3.04-17.26h-16.97L1560.94,2194.55z"/>
		<rect x="1621.43" y="2188.46" class="st2" width="12.62" height="101.53"/>
		<path class="st2" d="M1693.51,2215.14c-11.75,0-19.87,5.08-24.95,10.44l0.15-9.57h-10.3l-13.05,73.97h11.9l6.53-36.55
			c3.04-16.68,12.76-27.41,26.98-27.41c10.44,0,16.1,5.8,16.1,15.08c0,3.63-0.43,6.24-0.87,8.7l-7.11,40.18h11.89l7.25-40.76
			c0.58-3.34,0.87-6.38,0.87-9.14C1718.89,2222.69,1707.72,2215.14,1693.51,2215.14z"/>
		<polygon class="st2" points="1785.03,2216.01 1752.11,2276.93 1740.36,2216.01 1728.32,2216.01 1742.97,2289.99 1757.33,2289.99 
			1798.09,2216.01 		"/>
		<path class="st2" d="M1837.68,2215.14c-23.5,0-41.48,18.57-41.48,43.8c0,18.42,12.91,31.91,32.2,31.91
			c23.5,0,41.48-18.57,41.48-43.8C1869.88,2228.63,1856.98,2215.14,1837.68,2215.14z M1829.42,2280.27
			c-12.33,0-21.18-8.85-21.18-21.9c0-17.55,11.02-32.64,28.43-32.64c12.33,0,21.18,8.85,21.18,21.9
			C1857.85,2265.18,1846.82,2280.27,1829.42,2280.27z"/>
		<polygon class="st2" points="1876.55,2289.99 1888.45,2289.99 1901.5,2216.01 1889.61,2216.01 		"/>
		<path class="st2" d="M1899.62,2188.16c-4.35,0-8.27,3.48-8.27,8.41c0,4.06,3.05,6.96,7.25,6.96c4.35,0,8.12-3.48,8.12-8.41
			C1906.72,2191.07,1903.82,2188.16,1899.62,2188.16z"/>
		<path class="st2" d="M1947.77,2225.73c10.15,0,17.7,5.66,18.71,15.52h11.6c-0.43-15.52-11.17-26.11-29.3-26.11
			c-24.95,0-40.47,18.28-40.47,43.51c0,18.28,12.91,32.2,32.06,32.2c16.53,0,30.6-8.41,34.66-26.4H1963
			c-3.34,10.44-11.46,15.81-21.47,15.81c-12.62,0-21.18-8.85-21.18-22.34C1920.35,2240.67,1929.93,2225.73,1947.77,2225.73z"/>
		<path class="st2" d="M2056.11,2255.76c0.87-3.77,1.16-7.54,1.16-11.75c0-17.26-11.31-28.86-29.73-28.86
			c-25.67,0-40.76,20.45-40.76,43.66c0,18.86,12.04,32.05,32.78,32.05c16.68,0,29.3-8.99,34.23-25.67h-12.04
			c-4.06,9.14-9.72,15.09-21.76,15.09c-14.94,0-21.18-10.44-21.18-21.76c0-0.87,0-1.74,0.15-2.76H2056.11z M2026.09,2225.59
			c11.31,0,18.42,6.38,18.42,17.26c0,1.01,0,1.59-0.15,2.61h-43.22C2004.19,2233.85,2013.76,2225.59,2026.09,2225.59z"/>
	</g>
</g>
<g>
	<g>
		<rect x="416.16" y="5617.21" class="st3" width="591.78" height="102.95"/>
		<rect x="-599.07" y="5617.21" class="st4" width="591.78" height="102.95"/>
		<rect x="1431.39" y="5617.21" class="st5" width="591.78" height="102.95"/>
		<rect x="2455.95" y="5617.21" class="st6" width="591.78" height="102.95"/>
	</g>
	<g>
		<rect x="228.84" y="5542.28" class="st1" width="591.78" height="102.95"/>
		<rect x="-786.39" y="5542.28" width="591.78" height="102.95"/>
		<rect x="1244.07" y="5542.28" class="st0" width="591.78" height="102.95"/>
		<rect x="2268.62" y="5542.28" class="st7" width="591.78" height="102.95"/>
	</g>
	<g>
		<path class="st2" d="M4.48,5185.41h64.3c33.47,0,55.46,20.07,55.46,51.39s-21.99,51.63-55.46,51.63h-43.5v64.3H4.48V5185.41z
			 M25.27,5204.52v64.79h41.59c21.99,0,36.1-12.68,36.1-32.51s-13.86-32.28-35.86-32.28H25.27z"/>
		<path class="st2" d="M114.4,5352.74l63.83-167.33h24.62l63.58,167.33H244.2l-17.69-45.17h-72.91l-17.69,45.17H114.4z
			 M159.82,5288.67h60.48l-30.36-80.55L159.82,5288.67z"/>
		<path class="st2" d="M285.27,5352.74v-167.33h20.8v148.2h76.25v19.13H285.27z"/>
		<path class="st2" d="M403.32,5185.41h106.61v19.12h-85.82v53.55h71.48v19.13h-71.48v56.41h88.93v19.13H403.32V5185.41z"/>
		<path class="st2" d="M522.57,5185.41h129.32v19.12h-54.26v148.21h-20.8v-148.21h-54.26V5185.41z"/>
		<path class="st2" d="M636.57,5352.74l63.83-167.33h24.62l63.58,167.33h-22.23l-17.69-45.17h-72.91l-17.69,45.17H636.57z
			 M681.98,5288.67h60.48l-30.36-80.55L681.98,5288.67z"/>
		<path class="st2" d="M870.05,5352.74v-167.33h53.55c52.35,0,84.14,33.47,84.14,83.66c0,49.96-31.79,83.67-84.14,83.67H870.05z
			 M890.84,5333.61h32.75c40.64,0,62.87-25.57,62.87-64.54c0-39.19-22.23-64.54-62.87-64.54h-32.75V5333.61z"/>
		<path class="st2" d="M1033.98,5185.41h106.61v19.12h-85.82v53.55h71.48v19.13h-71.48v56.41h88.93v19.13h-109.72V5185.41z"/>
		<path class="st2" d="M1223.49,5269.07c0-50.67,31.32-85.09,79.84-85.09c37.05,0,64.07,21.5,70.27,56.17h-21.99
			c-6.46-23.18-24.14-37.05-49.24-37.05c-35.14,0-57.61,27.25-57.61,65.97c0,38.5,21.52,65.98,56.66,65.98
			c25.82,0,43.74-13.63,49.96-37.05h21.99c-6.22,34.67-33.94,56.17-71.72,56.17C1253.62,5354.17,1223.49,5320.22,1223.49,5269.07z"
			/>
		<path class="st2" d="M1469.42,5354.17c-47.1,0-79.85-35.86-79.85-85.1s32.75-85.09,79.85-85.09c47.09,0,79.84,35.85,79.84,85.09
			S1516.52,5354.17,1469.42,5354.17z M1469.42,5335.05c34.89,0,58.56-27.49,58.56-65.98c0-38.48-23.67-65.97-58.56-65.97
			c-34.9,0-58.57,27.49-58.57,65.97C1410.85,5307.56,1434.52,5335.05,1469.42,5335.05z"/>
		<path class="st2" d="M1575.5,5352.74v-167.33h20.8v148.2h76.26v19.13H1575.5z"/>
		<path class="st2" d="M1752.84,5354.17c-47.09,0-79.84-35.86-79.84-85.1s32.75-85.09,79.84-85.09s79.84,35.85,79.84,85.09
			S1799.93,5354.17,1752.84,5354.17z M1752.84,5335.05c34.9,0,58.57-27.49,58.57-65.98c0-38.48-23.67-65.97-58.57-65.97
			s-58.57,27.49-58.57,65.97C1694.27,5307.56,1717.94,5335.05,1752.84,5335.05z"/>
		<path class="st2" d="M1858.93,5185.41h64.06c33.47,0,55.7,20.07,55.7,51.39c0,23.42-14.1,41.59-35.61,47.56l37.53,68.37h-23.42
			l-35.39-64.3h-42.06v64.3h-20.8V5185.41z M1879.73,5204.52v64.79h41.59c21.99,0,36.1-12.91,36.1-32.51s-14.1-32.28-35.86-32.28
			H1879.73z"/>
		<path class="st2" d="M2004.94,5185.41h106.62v19.12h-85.82v53.55h71.48v19.13h-71.48v56.41h88.93v19.13h-109.73V5185.41z"/>
		<path class="st2" d="M2152.88,5298c1.67,22.46,19.12,37.29,44.7,37.29c22.46,0,38.48-10.27,38.48-28.45
			c0-20.8-20.56-25.1-45.9-29.4c-27.02-4.54-54.74-13.38-54.74-45.9c0-28.45,23.18-47.56,57.13-47.56
			c37.29,0,60.24,20.8,62.15,50.91h-21.52c-2.39-19.37-17.92-32.03-40.64-32.03c-21.75,0-36.33,9.56-36.33,27.49
			c0,20.07,20.31,24.14,45.41,28.45c27.25,4.54,55.23,13.62,55.23,46.13c0,28.93-24.38,49.24-59.53,49.24
			c-40.87,0-64.78-23.18-65.97-56.17H2152.88z"/>
	</g>
</g>
<g>
	<g>
		<path class="st2" d="M434.44-773.54l-47.24,51.13h116.22c19.61,0,26.75-3.16,34.37-10.55l0.02-0.02l-41.42,44.32h102.32
			c4.17,0,7.54-3.5,7.54-7.87v-53.71c0-4.37-3.38-7.9-7.54-7.9h-24.51c-9.28,0-18.05,6.02-19.26,6.88l30.24-32.26H456.08
			C448.13-783.51,440.44-779.97,434.44-773.54z"/>
		<path class="st2" d="M751.15-853.03h-95.88c-3.08,0-5.99,1.18-7.9,3.2c-0.15,0.16-0.49,0.52-0.49,0.52l-12.06,12.81l-49.66,52.98
			h165.98c5.54,0,10.03-3.74,10.03-8.35v-52.81C761.18-849.29,756.69-853.03,751.15-853.03z"/>
		<path class="st2" d="M355.18-656.71l0-31.69l-36.36,0.04v40.47v12.47c0,4.37,3.38,7.9,7.54,7.9h91.22h16.95
			c3.09,0,6.04-1.28,8.14-3.54l11.69-12.54l42.02-45.06h-73.45C366.42-688.66,355.18-656.71,355.18-656.71z"/>
	</g>
	<g>
		<polygon class="st2" points="189.8,-508 234.33,-508 237.66,-526.71 171.38,-526.71 153.39,-425.18 175.15,-425.18 182.4,-466.37 
			218.81,-466.37 222,-484.21 185.59,-484.21 		"/>
		<path class="st2" d="M295.25-445.63c0-0.58,0.15-1.74,0.43-3.05l3.77-21.32c0.44-2.61,0.72-5.08,0.72-7.4
			c0-16.1-12.91-23.21-30.31-23.21c-20.45,0-32.64,7.83-36.84,24.08h20.45c1.74-5.22,4.93-9.14,14.94-9.14
			c6.96,0,11.89,2.9,11.89,8.27c0,1.02-0.15,2.47-0.44,3.63l-0.43,2.76h-17.99c-21.61,0-34.96,8.12-34.96,25.96
			c0,13.92,11.75,20.74,25.82,20.74c11.02,0,17.99-3.63,23.93-10.59v0.15c0,5.37,3.77,9.57,12.47,9.57h9.86l3.05-17.26h-2.9
			C296.26-442.44,295.25-443.6,295.25-445.63z M276.83-456.22c-1.74,9.43-8.41,17.12-19.87,17.12c-5.51,0-9.72-2.9-9.72-7.98
			c0-7.11,4.93-10.3,14.65-10.3h15.08L276.83-456.22z"/>
		<path class="st2" d="M350.07-486.24c8.12,0,12.91,3.48,12.91,9.86h19.29c0-16.1-14.07-24.37-32.05-24.37
			c-20.02,0-33.94,8.85-33.94,24.8c0,14.94,14.36,18.42,28.28,20.74c8.85,1.45,13.92,3.05,13.92,7.69c0,5.8-5.66,8.56-15.09,8.56
			c-7.83,0-13.78-3.48-14.07-11.31h-19c0,17.41,13.49,25.96,32.49,25.96c19.44,0,35.83-7.69,35.83-25.67
			c0-15.95-15.81-19.58-29.88-21.47c-7.4-1.02-12.62-2.61-12.62-6.96C336.15-483.19,341.37-486.24,350.07-486.24z"/>
		<path class="st2" d="M430.28-520.62h-20.45l-3.63,20.89h-12.33l-3.05,17.26h12.33l-6.09,34.52c-0.43,2.61-0.72,4.64-0.72,6.38
			c0,10.88,6.82,16.39,19.58,16.39H431l3.05-17.26h-10.88c-4.21,0-5.66-1.45-5.66-4.35c0-0.73,0.15-2.03,0.29-2.9l5.8-32.78h16.97
			l3.04-17.26h-16.97L430.28-520.62z"/>
		<rect x="490.76" y="-526.71" class="st2" width="12.62" height="101.53"/>
		<path class="st2" d="M562.85-500.02c-11.75,0-19.87,5.08-24.95,10.44l0.15-9.57h-10.3l-13.05,73.97h11.9l6.53-36.55
			c3.04-16.68,12.76-27.41,26.98-27.41c10.44,0,16.1,5.8,16.1,15.08c0,3.63-0.43,6.24-0.87,8.7l-7.11,40.18h11.89l7.25-40.76
			c0.58-3.34,0.87-6.38,0.87-9.14C588.23-492.48,577.06-500.02,562.85-500.02z"/>
		<polygon class="st2" points="654.37,-499.15 621.44,-438.23 609.69,-499.15 597.65,-499.15 612.3,-425.18 626.66,-425.18 
			667.42,-499.15 		"/>
		<path class="st2" d="M707.02-500.02c-23.5,0-41.48,18.57-41.48,43.8c0,18.42,12.91,31.91,32.2,31.91
			c23.5,0,41.48-18.57,41.48-43.8C739.22-486.53,726.31-500.02,707.02-500.02z M698.75-434.89c-12.33,0-21.18-8.85-21.18-21.9
			c0-17.55,11.02-32.64,28.43-32.64c12.33,0,21.18,8.85,21.18,21.9C727.18-449.98,716.16-434.89,698.75-434.89z"/>
		<polygon class="st2" points="745.89,-425.18 757.78,-425.18 770.84,-499.15 758.94,-499.15 		"/>
		<path class="st2" d="M768.95-527c-4.35,0-8.27,3.48-8.27,8.41c0,4.06,3.05,6.96,7.25,6.96c4.35,0,8.12-3.48,8.12-8.41
			C776.06-524.1,773.16-527,768.95-527z"/>
		<path class="st2" d="M817.1-489.43c10.15,0,17.7,5.66,18.71,15.52h11.6c-0.43-15.52-11.17-26.11-29.3-26.11
			c-24.95,0-40.47,18.28-40.47,43.51c0,18.28,12.91,32.2,32.06,32.2c16.53,0,30.6-8.41,34.66-26.4h-12.04
			c-3.34,10.44-11.46,15.81-21.47,15.81c-12.62,0-21.18-8.85-21.18-22.34C789.69-474.49,799.26-489.43,817.1-489.43z"/>
		<path class="st2" d="M925.45-459.41c0.87-3.77,1.16-7.54,1.16-11.75c0-17.26-11.31-28.86-29.73-28.86
			c-25.67,0-40.76,20.45-40.76,43.66c0,18.86,12.04,32.05,32.78,32.05c16.68,0,29.3-8.99,34.23-25.67h-12.04
			c-4.06,9.14-9.72,15.09-21.76,15.09c-14.94,0-21.18-10.44-21.18-21.76c0-0.87,0-1.74,0.15-2.76H925.45z M895.42-489.58
			c11.31,0,18.42,6.38,18.42,17.26c0,1.01,0,1.6-0.15,2.61h-43.22C873.52-481.31,883.09-489.58,895.42-489.58z"/>
	</g>
</g>
<rect x="2296.89" y="2715.16" class="st0" width="1080" height="1080"/>
<rect x="1130.67" y="2715.16" class="st1" width="1080" height="1080"/>
<g>
	<path class="st2" d="M1339.16,3240.69l-20.55,22.24h50.56c8.53,0,11.64-1.38,14.95-4.59l0.01-0.01l-18.02,19.28h44.51
		c1.81,0,3.28-1.52,3.28-3.42v-23.36c0-1.9-1.47-3.44-3.28-3.44h-10.66c-4.04,0-7.85,2.62-8.38,2.99l13.15-14.03h-56.16
		C1345.11,3236.35,1341.77,3237.89,1339.16,3240.69z"/>
	<path class="st2" d="M1476.93,3206.11h-41.71c-1.34,0-2.61,0.51-3.43,1.39c-0.07,0.07-0.21,0.23-0.21,0.23l-5.25,5.57l-21.6,23.05
		h72.2c2.41,0,4.36-1.63,4.36-3.63v-22.97C1481.29,3207.74,1479.34,3206.11,1476.93,3206.11z"/>
	<path class="st2" d="M1304.68,3291.51v-13.79l-15.82,0.02v17.6v5.42c0,1.9,1.47,3.44,3.28,3.44h39.68h7.37
		c1.34,0,2.63-0.56,3.54-1.54l5.09-5.45l18.28-19.6h-31.95C1309.57,3277.62,1304.68,3291.51,1304.68,3291.51z"/>
	<polygon class="st2" points="1544.81,3232.88 1575.49,3232.88 1577.79,3219.98 1532.12,3219.98 1519.73,3289.94 1534.72,3289.94 
		1539.71,3261.56 1564.8,3261.56 1567,3249.27 1541.91,3249.27 	"/>
	<path class="st2" d="M1617.46,3275.85c0-0.4,0.1-1.2,0.3-2.1l2.6-14.69c0.3-1.8,0.5-3.5,0.5-5.1c0-11.09-8.89-15.99-20.89-15.99
		c-14.09,0-22.49,5.4-25.38,16.59h14.09c1.2-3.6,3.4-6.3,10.29-6.3c4.8,0,8.19,2,8.19,5.7c0,0.7-0.1,1.7-0.3,2.5l-0.3,1.9h-12.39
		c-14.89,0-24.08,5.6-24.08,17.89c0,9.59,8.09,14.29,17.79,14.29c7.59,0,12.39-2.5,16.49-7.3v0.1c0,3.7,2.6,6.6,8.59,6.6h6.8
		l2.1-11.89h-2C1618.16,3278.05,1617.46,3277.25,1617.46,3275.85z M1604.77,3268.55c-1.2,6.5-5.8,11.79-13.69,11.79
		c-3.8,0-6.7-2-6.7-5.5c0-4.9,3.4-7.1,10.09-7.1h10.39L1604.77,3268.55z"/>
	<path class="st2" d="M1655.24,3247.87c5.6,0,8.89,2.4,8.89,6.8h13.29c0-11.09-9.69-16.79-22.09-16.79
		c-13.79,0-23.38,6.1-23.38,17.09c0,10.29,9.89,12.69,19.49,14.29c6.1,1,9.59,2.1,9.59,5.3c0,4-3.9,5.9-10.39,5.9
		c-5.4,0-9.49-2.4-9.69-7.8h-13.09c0,11.99,9.29,17.89,22.39,17.89c13.39,0,24.68-5.3,24.68-17.69c0-10.99-10.89-13.49-20.59-14.79
		c-5.1-0.7-8.69-1.8-8.69-4.8C1645.64,3249.97,1649.24,3247.87,1655.24,3247.87z"/>
	<path class="st2" d="M1710.5,3224.18h-14.09l-2.5,14.39h-8.49l-2.1,11.89h8.49l-4.2,23.78c-0.3,1.8-0.5,3.2-0.5,4.4
		c0,7.5,4.7,11.29,13.49,11.29H1711l2.1-11.89h-7.5c-2.9,0-3.9-1-3.9-3c0-0.5,0.1-1.4,0.2-2l4-22.59h11.69l2.1-11.89H1708
		L1710.5,3224.18z"/>
	<rect x="1752.17" y="3219.98" class="st2" width="8.7" height="69.96"/>
	<path class="st2" d="M1801.84,3238.37c-8.1,0-13.69,3.5-17.19,7.2l0.1-6.6h-7.1l-8.99,50.97h8.2l4.5-25.18
		c2.1-11.49,8.79-18.89,18.59-18.89c7.19,0,11.09,4,11.09,10.39c0,2.5-0.3,4.3-0.6,6l-4.9,27.68h8.19l5-28.08
		c0.4-2.3,0.6-4.4,0.6-6.3C1819.33,3243.57,1811.63,3238.37,1801.84,3238.37z"/>
	<polygon class="st2" points="1864.9,3238.97 1842.21,3280.95 1834.12,3238.97 1825.82,3238.97 1835.92,3289.94 1845.81,3289.94 
		1873.89,3238.97 	"/>
	<path class="st2" d="M1901.18,3238.37c-16.19,0-28.58,12.79-28.58,30.18c0,12.69,8.89,21.99,22.19,21.99
		c16.19,0,28.58-12.79,28.58-30.18C1923.36,3247.67,1914.47,3238.37,1901.18,3238.37z M1895.48,3283.24
		c-8.49,0-14.59-6.1-14.59-15.09c0-12.09,7.6-22.49,19.59-22.49c8.49,0,14.59,6.1,14.59,15.09
		C1915.07,3272.85,1907.47,3283.24,1895.48,3283.24z"/>
	<polygon class="st2" points="1927.96,3289.94 1936.15,3289.94 1945.15,3238.97 1936.95,3238.97 	"/>
	<path class="st2" d="M1943.85,3219.78c-3,0-5.7,2.4-5.7,5.8c0,2.8,2.1,4.8,5,4.8c3,0,5.6-2.4,5.6-5.8
		C1948.74,3221.78,1946.74,3219.78,1943.85,3219.78z"/>
	<path class="st2" d="M1977.02,3245.67c7,0,12.19,3.9,12.89,10.69h7.99c-0.3-10.69-7.7-17.99-20.19-17.99
		c-17.19,0-27.88,12.59-27.88,29.98c0,12.59,8.89,22.19,22.09,22.19c11.39,0,21.09-5.8,23.88-18.19h-8.29
		c-2.3,7.2-7.89,10.89-14.79,10.89c-8.69,0-14.59-6.1-14.59-15.39C1958.13,3255.96,1964.73,3245.67,1977.02,3245.67z"/>
	<path class="st2" d="M2051.67,3266.35c0.6-2.6,0.8-5.2,0.8-8.09c0-11.89-7.8-19.89-20.49-19.89c-17.69,0-28.08,14.09-28.08,30.08
		c0,12.99,8.29,22.09,22.59,22.09c11.49,0,20.19-6.2,23.58-17.69h-8.29c-2.8,6.3-6.7,10.39-14.99,10.39
		c-10.29,0-14.59-7.2-14.59-14.99c0-0.6,0-1.2,0.1-1.9H2051.67z M2030.99,3245.57c7.8,0,12.69,4.4,12.69,11.89c0,0.7,0,1.1-0.1,1.8
		h-29.78C2015.9,3251.26,2022.49,3245.57,2030.99,3245.57z"/>
</g>
<g>
	<path class="st2" d="M339.65,476.86l-89.66,97.04h220.59c37.21,0,50.76-6.01,65.22-20.02l-78.58,84.09h194.22
		c7.91,0,14.31-6.65,14.31-14.93V521.1c0-8.29-6.41-15-14.32-15h-46.53c-17.61,0-34.26,11.42-36.56,13.06l57.39-61.23H380.71
		C365.62,457.93,351.04,464.65,339.65,476.86z"/>
	<path class="st2" d="M940.78,325.99H758.8c-5.85,0-11.38,2.24-14.99,6.07c-0.28,0.3-0.94,0.99-0.94,0.99l-22.89,24.31
		l-94.26,100.57h315.05c10.52,0,19.04-7.09,19.04-15.85V341.84C959.82,333.08,951.3,325.99,940.78,325.99z"/>
	<path class="st2" d="M189.2,698.61l0-60.15l-69.02,0.07v76.81v23.67c0,8.28,6.41,15,14.31,15h173.15h32.17
		c5.86,0,11.46-2.44,15.45-6.72l22.2-23.8l79.76-85.52H317.8C210.54,637.97,189.2,698.61,189.2,698.61z"/>
</g>
<g>
	<path d="M-826.58,476.86l-89.66,97.04h220.59c37.21,0,50.76-6.01,65.22-20.02L-709,637.97h194.22c7.91,0,14.31-6.65,14.31-14.93
		V521.1c0-8.29-6.41-15-14.32-15h-46.53c-17.61,0-34.26,11.42-36.56,13.06l57.39-61.23h-245.02
		C-800.6,457.93-815.19,464.65-826.58,476.86z"/>
	<path d="M-225.44,325.99h-181.98c-5.85,0-11.38,2.24-14.99,6.07c-0.28,0.3-0.94,0.99-0.94,0.99l-22.89,24.31l-94.26,100.57h315.05
		c10.52,0,19.04-7.09,19.04-15.85V341.84C-206.4,333.08-214.92,325.99-225.44,325.99z"/>
	<path d="M-977.02,698.61l0-60.15l-69.02,0.07v76.81v23.67c0,8.28,6.41,15,14.31,15h173.15h32.17c5.86,0,11.46-2.44,15.45-6.72
		l22.2-23.8l79.76-85.52h-139.42C-955.69,637.97-977.02,698.61-977.02,698.61z"/>
</g>
<g>
	<path class="st1" d="M2505.38,3240.69l-20.55,22.24h50.56c8.53,0,11.64-1.38,14.95-4.59l0.01-0.01l-18.02,19.28h44.51
		c1.81,0,3.28-1.52,3.28-3.42v-23.36c0-1.9-1.47-3.44-3.28-3.44h-10.66c-4.04,0-7.85,2.62-8.38,2.99l13.15-14.03h-56.16
		C2511.33,3236.35,2507.99,3237.89,2505.38,3240.69z"/>
	<path class="st1" d="M2643.15,3206.11h-41.71c-1.34,0-2.61,0.51-3.43,1.39c-0.07,0.07-0.21,0.23-0.21,0.23l-5.25,5.57l-21.6,23.05
		h72.2c2.41,0,4.36-1.63,4.36-3.63v-22.97C2647.51,3207.74,2645.56,3206.11,2643.15,3206.11z"/>
	<path class="st1" d="M2470.9,3291.51v-13.79l-15.82,0.02v17.6v5.42c0,1.9,1.47,3.44,3.28,3.44h39.68h7.37
		c1.34,0,2.63-0.56,3.54-1.54l5.09-5.45l18.28-19.6h-31.95C2475.79,3277.62,2470.9,3291.51,2470.9,3291.51z"/>
	<polygon class="st1" points="2711.03,3232.88 2741.71,3232.88 2744.01,3219.98 2698.34,3219.98 2685.95,3289.94 2700.94,3289.94 
		2705.94,3261.56 2731.02,3261.56 2733.22,3249.27 2708.13,3249.27 	"/>
	<path class="st1" d="M2783.69,3275.85c0-0.4,0.1-1.2,0.3-2.1l2.6-14.69c0.3-1.8,0.5-3.5,0.5-5.1c0-11.09-8.89-15.99-20.89-15.99
		c-14.09,0-22.49,5.4-25.38,16.59h14.09c1.2-3.6,3.4-6.3,10.29-6.3c4.8,0,8.19,2,8.19,5.7c0,0.7-0.1,1.7-0.3,2.5l-0.3,1.9h-12.39
		c-14.89,0-24.08,5.6-24.08,17.89c0,9.59,8.09,14.29,17.79,14.29c7.59,0,12.39-2.5,16.49-7.3v0.1c0,3.7,2.6,6.6,8.59,6.6h6.8
		l2.1-11.89h-2C2784.39,3278.05,2783.69,3277.25,2783.69,3275.85z M2770.99,3268.55c-1.2,6.5-5.8,11.79-13.69,11.79
		c-3.8,0-6.7-2-6.7-5.5c0-4.9,3.4-7.1,10.09-7.1h10.39L2770.99,3268.55z"/>
	<path class="st1" d="M2821.46,3247.87c5.6,0,8.89,2.4,8.89,6.8h13.29c0-11.09-9.69-16.79-22.09-16.79
		c-13.79,0-23.38,6.1-23.38,17.09c0,10.29,9.89,12.69,19.49,14.29c6.1,1,9.59,2.1,9.59,5.3c0,4-3.9,5.9-10.39,5.9
		c-5.4,0-9.49-2.4-9.69-7.8h-13.09c0,11.99,9.29,17.89,22.39,17.89c13.39,0,24.68-5.3,24.68-17.69c0-10.99-10.89-13.49-20.59-14.79
		c-5.1-0.7-8.69-1.8-8.69-4.8C2811.87,3249.97,2815.46,3247.87,2821.46,3247.87z"/>
	<path class="st1" d="M2876.72,3224.18h-14.09l-2.5,14.39h-8.49l-2.1,11.89h8.49l-4.2,23.78c-0.3,1.8-0.5,3.2-0.5,4.4
		c0,7.5,4.7,11.29,13.49,11.29h10.39l2.1-11.89h-7.5c-2.9,0-3.9-1-3.9-3c0-0.5,0.1-1.4,0.2-2l4-22.59h11.69l2.1-11.89h-11.69
		L2876.72,3224.18z"/>
	<rect x="2918.39" y="3219.98" class="st1" width="8.7" height="69.96"/>
	<path class="st1" d="M2968.06,3238.37c-8.1,0-13.69,3.5-17.19,7.2l0.1-6.6h-7.1l-8.99,50.97h8.2l4.5-25.18
		c2.1-11.49,8.79-18.89,18.59-18.89c7.19,0,11.09,4,11.09,10.39c0,2.5-0.3,4.3-0.6,6l-4.9,27.68h8.19l5-28.08
		c0.4-2.3,0.6-4.4,0.6-6.3C2985.55,3243.57,2977.85,3238.37,2968.06,3238.37z"/>
	<polygon class="st1" points="3031.12,3238.97 3008.44,3280.95 3000.34,3238.97 2992.05,3238.97 3002.14,3289.94 3012.03,3289.94 
		3040.11,3238.97 	"/>
	<path class="st1" d="M3067.4,3238.37c-16.19,0-28.58,12.79-28.58,30.18c0,12.69,8.89,21.99,22.19,21.99
		c16.19,0,28.58-12.79,28.58-30.18C3089.58,3247.67,3080.69,3238.37,3067.4,3238.37z M3061.7,3283.24c-8.49,0-14.59-6.1-14.59-15.09
		c0-12.09,7.6-22.49,19.59-22.49c8.49,0,14.59,6.1,14.59,15.09C3081.29,3272.85,3073.69,3283.24,3061.7,3283.24z"/>
	<polygon class="st1" points="3094.18,3289.94 3102.37,3289.94 3111.37,3238.97 3103.17,3238.97 	"/>
	<path class="st1" d="M3110.07,3219.78c-3,0-5.7,2.4-5.7,5.8c0,2.8,2.1,4.8,5,4.8c3,0,5.6-2.4,5.6-5.8
		C3114.97,3221.78,3112.97,3219.78,3110.07,3219.78z"/>
	<path class="st1" d="M3143.25,3245.67c7,0,12.19,3.9,12.89,10.69h7.99c-0.3-10.69-7.7-17.99-20.19-17.99
		c-17.19,0-27.88,12.59-27.88,29.98c0,12.59,8.89,22.19,22.09,22.19c11.39,0,21.09-5.8,23.88-18.19h-8.29
		c-2.3,7.2-7.89,10.89-14.79,10.89c-8.69,0-14.59-6.1-14.59-15.39C3124.36,3255.96,3130.95,3245.67,3143.25,3245.67z"/>
	<path class="st1" d="M3217.9,3266.35c0.6-2.6,0.8-5.2,0.8-8.09c0-11.89-7.8-19.89-20.49-19.89c-17.69,0-28.08,14.09-28.08,30.08
		c0,12.99,8.29,22.09,22.59,22.09c11.49,0,20.19-6.2,23.58-17.69H3208c-2.8,6.3-6.7,10.39-14.99,10.39
		c-10.29,0-14.59-7.2-14.59-14.99c0-0.6,0-1.2,0.1-1.9H3217.9z M3197.21,3245.57c7.8,0,12.69,4.4,12.69,11.89c0,0.7,0,1.1-0.1,1.8
		h-29.78C3182.12,3251.26,3188.71,3245.57,3197.21,3245.57z"/>
</g>
<rect x="2296.89" y="3845.83" width="1080" height="1080"/>
<rect x="1130.67" y="3845.83" class="st2" width="1080" height="1080"/>
<g>
	<path d="M1339.16,4371.36l-20.55,22.24h50.56c8.53,0,11.64-1.38,14.95-4.59l0.01-0.01l-18.02,19.28h44.51
		c1.81,0,3.28-1.52,3.28-3.42v-23.36c0-1.9-1.47-3.44-3.28-3.44h-10.66c-4.04,0-7.85,2.62-8.38,2.99l13.15-14.03h-56.16
		C1345.11,4367.02,1341.77,4368.56,1339.16,4371.36z"/>
	<path d="M1476.93,4336.78h-41.71c-1.34,0-2.61,0.51-3.43,1.39c-0.07,0.07-0.21,0.23-0.21,0.23l-5.25,5.57l-21.6,23.05h72.2
		c2.41,0,4.36-1.63,4.36-3.63v-22.97C1481.29,4338.41,1479.34,4336.78,1476.93,4336.78z"/>
	<path d="M1304.68,4422.18v-13.79l-15.82,0.02v17.6v5.42c0,1.9,1.47,3.44,3.28,3.44h39.68h7.37c1.34,0,2.63-0.56,3.54-1.54
		l5.09-5.46l18.28-19.6h-31.95C1309.57,4408.28,1304.68,4422.18,1304.68,4422.18z"/>
	<polygon points="1544.81,4363.54 1575.49,4363.54 1577.79,4350.65 1532.12,4350.65 1519.73,4420.61 1534.72,4420.61 
		1539.71,4392.22 1564.8,4392.22 1567,4379.93 1541.91,4379.93 	"/>
	<path d="M1617.46,4406.52c0-0.4,0.1-1.2,0.3-2.1l2.6-14.69c0.3-1.8,0.5-3.5,0.5-5.1c0-11.09-8.89-15.99-20.89-15.99
		c-14.09,0-22.49,5.4-25.38,16.59h14.09c1.2-3.6,3.4-6.3,10.29-6.3c4.8,0,8.19,2,8.19,5.7c0,0.7-0.1,1.7-0.3,2.5l-0.3,1.9h-12.39
		c-14.89,0-24.08,5.6-24.08,17.89c0,9.59,8.09,14.29,17.79,14.29c7.59,0,12.39-2.5,16.49-7.3v0.1c0,3.7,2.6,6.6,8.59,6.6h6.8
		l2.1-11.89h-2C1618.16,4408.71,1617.46,4407.91,1617.46,4406.52z M1604.77,4399.22c-1.2,6.5-5.8,11.79-13.69,11.79
		c-3.8,0-6.7-2-6.7-5.5c0-4.9,3.4-7.1,10.09-7.1h10.39L1604.77,4399.22z"/>
	<path d="M1655.24,4378.53c5.6,0,8.89,2.4,8.89,6.79h13.29c0-11.09-9.69-16.79-22.09-16.79c-13.79,0-23.38,6.1-23.38,17.09
		c0,10.29,9.89,12.69,19.49,14.29c6.1,1,9.59,2.1,9.59,5.3c0,4-3.9,5.9-10.39,5.9c-5.4,0-9.49-2.4-9.69-7.8h-13.09
		c0,11.99,9.29,17.89,22.39,17.89c13.39,0,24.68-5.3,24.68-17.69c0-10.99-10.89-13.49-20.59-14.79c-5.1-0.7-8.69-1.8-8.69-4.8
		C1645.64,4380.63,1649.24,4378.53,1655.24,4378.53z"/>
	<path d="M1710.5,4354.85h-14.09l-2.5,14.39h-8.49l-2.1,11.89h8.49l-4.2,23.79c-0.3,1.8-0.5,3.2-0.5,4.4
		c0,7.5,4.7,11.29,13.49,11.29H1711l2.1-11.89h-7.5c-2.9,0-3.9-1-3.9-3c0-0.5,0.1-1.4,0.2-2l4-22.59h11.69l2.1-11.89H1708
		L1710.5,4354.85z"/>
	<rect x="1752.17" y="4350.65" width="8.7" height="69.96"/>
	<path d="M1801.84,4369.04c-8.1,0-13.69,3.5-17.19,7.2l0.1-6.6h-7.1l-8.99,50.97h8.2l4.5-25.18c2.1-11.49,8.79-18.89,18.59-18.89
		c7.19,0,11.09,4,11.09,10.39c0,2.5-0.3,4.3-0.6,6l-4.9,27.68h8.19l5-28.08c0.4-2.3,0.6-4.4,0.6-6.3
		C1819.33,4374.24,1811.63,4369.04,1801.84,4369.04z"/>
	<polygon points="1864.9,4369.64 1842.21,4411.61 1834.12,4369.64 1825.82,4369.64 1835.92,4420.61 1845.81,4420.61 
		1873.89,4369.64 	"/>
	<path d="M1901.18,4369.04c-16.19,0-28.58,12.79-28.58,30.18c0,12.69,8.89,21.99,22.19,21.99c16.19,0,28.58-12.79,28.58-30.18
		C1923.36,4378.33,1914.47,4369.04,1901.18,4369.04z M1895.48,4413.91c-8.49,0-14.59-6.1-14.59-15.09c0-12.09,7.6-22.49,19.59-22.49
		c8.49,0,14.59,6.1,14.59,15.09C1915.07,4403.52,1907.47,4413.91,1895.48,4413.91z"/>
	<polygon points="1927.96,4420.61 1936.15,4420.61 1945.15,4369.64 1936.95,4369.64 	"/>
	<path d="M1943.85,4350.45c-3,0-5.7,2.4-5.7,5.8c0,2.8,2.1,4.8,5,4.8c3,0,5.6-2.4,5.6-5.8
		C1948.74,4352.45,1946.74,4350.45,1943.85,4350.45z"/>
	<path d="M1977.02,4376.33c7,0,12.19,3.9,12.89,10.69h7.99c-0.3-10.69-7.7-17.99-20.19-17.99c-17.19,0-27.88,12.59-27.88,29.98
		c0,12.59,8.89,22.19,22.09,22.19c11.39,0,21.09-5.8,23.88-18.19h-8.29c-2.3,7.2-7.89,10.89-14.79,10.89
		c-8.69,0-14.59-6.1-14.59-15.39C1958.13,4386.63,1964.73,4376.33,1977.02,4376.33z"/>
	<path d="M2051.67,4397.02c0.6-2.6,0.8-5.2,0.8-8.09c0-11.89-7.8-19.89-20.49-19.89c-17.69,0-28.08,14.09-28.08,30.08
		c0,12.99,8.29,22.09,22.59,22.09c11.49,0,20.19-6.2,23.58-17.69h-8.29c-2.8,6.3-6.7,10.39-14.99,10.39
		c-10.29,0-14.59-7.2-14.59-14.99c0-0.6,0-1.2,0.1-1.9H2051.67z M2030.99,4376.23c7.8,0,12.69,4.4,12.69,11.89c0,0.7,0,1.1-0.1,1.8
		h-29.78C2015.9,4381.93,2022.49,4376.23,2030.99,4376.23z"/>
</g>
<rect y="3845.83" width="1080" height="1080"/>
<rect x="-1166.22" y="3845.83" class="st2" width="1080" height="1080"/>
<g>
	<path class="st2" d="M339.65,4322.69l-89.66,97.04h220.59c37.21,0,50.76-6.01,65.22-20.02l-78.58,84.09h194.22
		c7.91,0,14.31-6.65,14.31-14.93v-101.94c0-8.29-6.41-15-14.32-15h-46.53c-17.61,0-34.26,11.42-36.56,13.06l57.39-61.23H380.71
		C365.62,4303.76,351.04,4310.48,339.65,4322.69z"/>
	<path class="st2" d="M940.78,4171.82H758.8c-5.85,0-11.38,2.24-14.99,6.07c-0.28,0.3-0.94,0.99-0.94,0.99l-22.89,24.31
		l-94.26,100.57h315.05c10.52,0,19.04-7.09,19.04-15.85v-100.24C959.82,4178.91,951.3,4171.82,940.78,4171.82z"/>
	<path class="st2" d="M189.2,4544.44l0-60.15l-69.02,0.07v76.81v23.67c0,8.28,6.41,15,14.31,15h173.15h32.17
		c5.86,0,11.46-2.44,15.45-6.72l22.2-23.8l79.76-85.52H317.8C210.54,4483.8,189.2,4544.44,189.2,4544.44z"/>
</g>
<g>
	<path d="M-826.58,4322.69l-89.66,97.04h220.59c37.21,0,50.76-6.01,65.22-20.02L-709,4483.8h194.22c7.91,0,14.31-6.65,14.31-14.93
		v-101.94c0-8.29-6.41-15-14.32-15h-46.53c-17.61,0-34.26,11.42-36.56,13.06l57.39-61.23h-245.02
		C-800.6,4303.76-815.19,4310.48-826.58,4322.69z"/>
	<path d="M-225.44,4171.82h-181.98c-5.85,0-11.38,2.24-14.99,6.07c-0.28,0.3-0.94,0.99-0.94,0.99l-22.89,24.31l-94.26,100.57h315.05
		c10.52,0,19.04-7.09,19.04-15.85v-100.24C-206.4,4178.91-214.92,4171.82-225.44,4171.82z"/>
	<path d="M-977.02,4544.44l0-60.15l-69.02,0.07v76.81v23.67c0,8.28,6.41,15,14.31,15h173.15h32.17c5.86,0,11.46-2.44,15.45-6.72
		l22.2-23.8l79.76-85.52h-139.42C-955.69,4483.8-977.02,4544.44-977.02,4544.44z"/>
</g>
<g>
	<path class="st2" d="M2505.38,4371.36l-20.55,22.24h50.56c8.53,0,11.64-1.38,14.95-4.59l0.01-0.01l-18.02,19.28h44.51
		c1.81,0,3.28-1.52,3.28-3.42v-23.36c0-1.9-1.47-3.44-3.28-3.44h-10.66c-4.04,0-7.85,2.62-8.38,2.99l13.15-14.03h-56.16
		C2511.33,4367.02,2507.99,4368.56,2505.38,4371.36z"/>
	<path class="st2" d="M2643.15,4336.78h-41.71c-1.34,0-2.61,0.51-3.43,1.39c-0.07,0.07-0.21,0.23-0.21,0.23l-5.25,5.57l-21.6,23.05
		h72.2c2.41,0,4.36-1.63,4.36-3.63v-22.97C2647.51,4338.41,2645.56,4336.78,2643.15,4336.78z"/>
	<path class="st2" d="M2470.9,4422.18v-13.79l-15.82,0.02v17.6v5.42c0,1.9,1.47,3.44,3.28,3.44h39.68h7.37
		c1.34,0,2.63-0.56,3.54-1.54l5.09-5.46l18.28-19.6h-31.95C2475.79,4408.28,2470.9,4422.18,2470.9,4422.18z"/>
	<polygon class="st2" points="2711.03,4363.54 2741.71,4363.54 2744.01,4350.65 2698.34,4350.65 2685.95,4420.61 2700.94,4420.61 
		2705.94,4392.22 2731.02,4392.22 2733.22,4379.93 2708.13,4379.93 	"/>
	<path class="st2" d="M2783.69,4406.52c0-0.4,0.1-1.2,0.3-2.1l2.6-14.69c0.3-1.8,0.5-3.5,0.5-5.1c0-11.09-8.89-15.99-20.89-15.99
		c-14.09,0-22.49,5.4-25.38,16.59h14.09c1.2-3.6,3.4-6.3,10.29-6.3c4.8,0,8.19,2,8.19,5.7c0,0.7-0.1,1.7-0.3,2.5l-0.3,1.9h-12.39
		c-14.89,0-24.08,5.6-24.08,17.89c0,9.59,8.09,14.29,17.79,14.29c7.59,0,12.39-2.5,16.49-7.3v0.1c0,3.7,2.6,6.6,8.59,6.6h6.8
		l2.1-11.89h-2C2784.39,4408.71,2783.69,4407.91,2783.69,4406.52z M2770.99,4399.22c-1.2,6.5-5.8,11.79-13.69,11.79
		c-3.8,0-6.7-2-6.7-5.5c0-4.9,3.4-7.1,10.09-7.1h10.39L2770.99,4399.22z"/>
	<path class="st2" d="M2821.46,4378.53c5.6,0,8.89,2.4,8.89,6.79h13.29c0-11.09-9.69-16.79-22.09-16.79
		c-13.79,0-23.38,6.1-23.38,17.09c0,10.29,9.89,12.69,19.49,14.29c6.1,1,9.59,2.1,9.59,5.3c0,4-3.9,5.9-10.39,5.9
		c-5.4,0-9.49-2.4-9.69-7.8h-13.09c0,11.99,9.29,17.89,22.39,17.89c13.39,0,24.68-5.3,24.68-17.69c0-10.99-10.89-13.49-20.59-14.79
		c-5.1-0.7-8.69-1.8-8.69-4.8C2811.87,4380.63,2815.46,4378.53,2821.46,4378.53z"/>
	<path class="st2" d="M2876.72,4354.85h-14.09l-2.5,14.39h-8.49l-2.1,11.89h8.49l-4.2,23.79c-0.3,1.8-0.5,3.2-0.5,4.4
		c0,7.5,4.7,11.29,13.49,11.29h10.39l2.1-11.89h-7.5c-2.9,0-3.9-1-3.9-3c0-0.5,0.1-1.4,0.2-2l4-22.59h11.69l2.1-11.89h-11.69
		L2876.72,4354.85z"/>
	<rect x="2918.39" y="4350.65" class="st2" width="8.7" height="69.96"/>
	<path class="st2" d="M2968.06,4369.04c-8.1,0-13.69,3.5-17.19,7.2l0.1-6.6h-7.1l-8.99,50.97h8.2l4.5-25.18
		c2.1-11.49,8.79-18.89,18.59-18.89c7.19,0,11.09,4,11.09,10.39c0,2.5-0.3,4.3-0.6,6l-4.9,27.68h8.19l5-28.08
		c0.4-2.3,0.6-4.4,0.6-6.3C2985.55,4374.24,2977.85,4369.04,2968.06,4369.04z"/>
	<polygon class="st2" points="3031.12,4369.64 3008.44,4411.61 3000.34,4369.64 2992.05,4369.64 3002.14,4420.61 3012.03,4420.61 
		3040.11,4369.64 	"/>
	<path class="st2" d="M3067.4,4369.04c-16.19,0-28.58,12.79-28.58,30.18c0,12.69,8.89,21.99,22.19,21.99
		c16.19,0,28.58-12.79,28.58-30.18C3089.58,4378.33,3080.69,4369.04,3067.4,4369.04z M3061.7,4413.91c-8.49,0-14.59-6.1-14.59-15.09
		c0-12.09,7.6-22.49,19.59-22.49c8.49,0,14.59,6.1,14.59,15.09C3081.29,4403.52,3073.69,4413.91,3061.7,4413.91z"/>
	<polygon class="st2" points="3094.18,4420.61 3102.37,4420.61 3111.37,4369.64 3103.17,4369.64 	"/>
	<path class="st2" d="M3110.07,4350.45c-3,0-5.7,2.4-5.7,5.8c0,2.8,2.1,4.8,5,4.8c3,0,5.6-2.4,5.6-5.8
		C3114.97,4352.45,3112.97,4350.45,3110.07,4350.45z"/>
	<path class="st2" d="M3143.25,4376.33c7,0,12.19,3.9,12.89,10.69h7.99c-0.3-10.69-7.7-17.99-20.19-17.99
		c-17.19,0-27.88,12.59-27.88,29.98c0,12.59,8.89,22.19,22.09,22.19c11.39,0,21.09-5.8,23.88-18.19h-8.29
		c-2.3,7.2-7.89,10.89-14.79,10.89c-8.69,0-14.59-6.1-14.59-15.39C3124.36,4386.63,3130.95,4376.33,3143.25,4376.33z"/>
	<path class="st2" d="M3217.9,4397.02c0.6-2.6,0.8-5.2,0.8-8.09c0-11.89-7.8-19.89-20.49-19.89c-17.69,0-28.08,14.09-28.08,30.08
		c0,12.99,8.29,22.09,22.59,22.09c11.49,0,20.19-6.2,23.58-17.69H3208c-2.8,6.3-6.7,10.39-14.99,10.39
		c-10.29,0-14.59-7.2-14.59-14.99c0-0.6,0-1.2,0.1-1.9H3217.9z M3197.21,4376.23c7.8,0,12.69,4.4,12.69,11.89c0,0.7,0,1.1-0.1,1.8
		h-29.78C3182.12,4381.93,3188.71,4376.23,3197.21,4376.23z"/>
</g>
<g>
	<g>
		<path d="M-731.78-773.54l-47.24,51.13h116.22c19.61,0,26.75-3.16,34.37-10.55l0.02-0.02l-41.42,44.32h102.32
			c4.17,0,7.54-3.5,7.54-7.87v-53.71c0-4.37-3.38-7.9-7.54-7.9h-24.51c-9.28,0-18.05,6.02-19.26,6.88l30.24-32.26h-129.09
			C-718.1-783.51-725.78-779.97-731.78-773.54z"/>
		<path d="M-415.07-853.03h-95.88c-3.08,0-5.99,1.18-7.9,3.2c-0.15,0.16-0.49,0.52-0.49,0.52l-12.06,12.81l-49.66,52.98h165.98
			c5.54,0,10.03-3.74,10.03-8.35v-52.81C-405.04-849.29-409.53-853.03-415.07-853.03z"/>
		<path d="M-811.04-656.71l0-31.69l-36.36,0.04v40.47v12.47c0,4.37,3.38,7.9,7.54,7.9h91.22h16.95c3.09,0,6.04-1.28,8.14-3.54
			l11.69-12.54l42.02-45.06h-73.45C-799.8-688.66-811.04-656.71-811.04-656.71z"/>
	</g>
	<g>
		<polygon points="-976.42,-508 -931.89,-508 -928.56,-526.71 -994.84,-526.71 -1012.83,-425.18 -991.07,-425.18 -983.82,-466.37 
			-947.41,-466.37 -944.22,-484.21 -980.63,-484.21 		"/>
		<path d="M-870.98-445.63c0-0.58,0.15-1.74,0.43-3.05l3.77-21.32c0.44-2.61,0.72-5.08,0.72-7.4c0-16.1-12.91-23.21-30.31-23.21
			c-20.45,0-32.64,7.83-36.84,24.08h20.45c1.74-5.22,4.93-9.14,14.94-9.14c6.96,0,11.89,2.9,11.89,8.27c0,1.02-0.15,2.47-0.44,3.63
			l-0.43,2.76h-17.99c-21.61,0-34.96,8.12-34.96,25.96c0,13.92,11.75,20.74,25.82,20.74c11.02,0,17.99-3.63,23.93-10.59v0.15
			c0,5.37,3.77,9.57,12.47,9.57h9.86l3.05-17.26h-2.9C-869.96-442.44-870.98-443.6-870.98-445.63z M-889.4-456.22
			c-1.74,9.43-8.41,17.12-19.87,17.12c-5.51,0-9.72-2.9-9.72-7.98c0-7.11,4.93-10.3,14.65-10.3h15.08L-889.4-456.22z"/>
		<path d="M-816.15-486.24c8.12,0,12.91,3.48,12.91,9.86h19.29c0-16.1-14.07-24.37-32.05-24.37c-20.02,0-33.94,8.85-33.94,24.8
			c0,14.94,14.36,18.42,28.28,20.74c8.85,1.45,13.92,3.05,13.92,7.69c0,5.8-5.66,8.56-15.09,8.56c-7.83,0-13.78-3.48-14.07-11.31
			h-19c0,17.41,13.49,25.96,32.49,25.96c19.44,0,35.83-7.69,35.83-25.67c0-15.95-15.81-19.58-29.88-21.47
			c-7.4-1.02-12.62-2.61-12.62-6.96C-830.07-483.19-824.85-486.24-816.15-486.24z"/>
		<path d="M-735.94-520.62h-20.45l-3.63,20.89h-12.33l-3.05,17.26h12.33l-6.09,34.52c-0.43,2.61-0.72,4.64-0.72,6.38
			c0,10.88,6.82,16.39,19.58,16.39h15.09l3.05-17.26h-10.88c-4.21,0-5.66-1.45-5.66-4.35c0-0.73,0.15-2.03,0.29-2.9l5.8-32.78h16.97
			l3.04-17.26h-16.97L-735.94-520.62z"/>
		<rect x="-675.46" y="-526.71" width="12.62" height="101.53"/>
		<path d="M-603.38-500.02c-11.75,0-19.87,5.08-24.95,10.44l0.15-9.57h-10.3l-13.05,73.97h11.9l6.53-36.55
			c3.04-16.68,12.76-27.41,26.98-27.41c10.44,0,16.1,5.8,16.1,15.08c0,3.63-0.43,6.24-0.87,8.7l-7.11,40.18h11.89l7.25-40.76
			c0.58-3.34,0.87-6.38,0.87-9.14C-578-492.48-589.16-500.02-603.38-500.02z"/>
		<polygon points="-511.86,-499.15 -544.78,-438.23 -556.53,-499.15 -568.57,-499.15 -553.92,-425.18 -539.56,-425.18 
			-498.8,-499.15 		"/>
		<path d="M-459.2-500.02c-23.5,0-41.48,18.57-41.48,43.8c0,18.42,12.91,31.91,32.2,31.91c23.5,0,41.48-18.57,41.48-43.8
			C-427-486.53-439.91-500.02-459.2-500.02z M-467.47-434.89c-12.33,0-21.18-8.85-21.18-21.9c0-17.55,11.02-32.64,28.43-32.64
			c12.33,0,21.18,8.85,21.18,21.9C-439.04-449.98-450.07-434.89-467.47-434.89z"/>
		<polygon points="-420.34,-425.18 -408.44,-425.18 -395.39,-499.15 -407.28,-499.15 		"/>
		<path d="M-397.27-527c-4.35,0-8.27,3.48-8.27,8.41c0,4.06,3.05,6.96,7.25,6.96c4.35,0,8.12-3.48,8.12-8.41
			C-390.17-524.1-393.07-527-397.27-527z"/>
		<path d="M-349.12-489.43c10.15,0,17.7,5.66,18.71,15.52h11.6c-0.43-15.52-11.17-26.11-29.3-26.11
			c-24.95,0-40.47,18.28-40.47,43.51c0,18.28,12.91,32.2,32.06,32.2c16.53,0,30.6-8.41,34.66-26.4h-12.04
			c-3.34,10.44-11.46,15.81-21.47,15.81c-12.62,0-21.18-8.85-21.18-22.34C-376.54-474.49-366.96-489.43-349.12-489.43z"/>
		<path d="M-240.78-459.41c0.87-3.77,1.16-7.54,1.16-11.75c0-17.26-11.31-28.86-29.73-28.86c-25.67,0-40.76,20.45-40.76,43.66
			c0,18.86,12.04,32.05,32.78,32.05c16.68,0,29.3-8.99,34.23-25.67h-12.04c-4.06,9.14-9.72,15.09-21.76,15.09
			c-14.94,0-21.18-10.44-21.18-21.76c0-0.87,0-1.74,0.15-2.76H-240.78z M-270.8-489.58c11.31,0,18.42,6.38,18.42,17.26
			c0,1.01,0,1.6-0.15,2.61h-43.22C-292.7-481.31-283.13-489.58-270.8-489.58z"/>
	</g>
</g>
<rect y="1536.5" width="1080" height="1080"/>
<g>
	<g>
		<path class="st2" d="M434.44,1941.62l-47.24,51.13h116.22c19.61,0,26.75-3.16,34.37-10.55l0.02-0.02l-41.42,44.32h102.32
			c4.17,0,7.54-3.5,7.54-7.87v-53.71c0-4.37-3.38-7.9-7.54-7.9h-24.51c-9.28,0-18.05,6.02-19.26,6.88l30.24-32.26H456.08
			C448.13,1931.65,440.44,1935.19,434.44,1941.62z"/>
		<path class="st2" d="M751.15,1862.14h-95.88c-3.08,0-5.99,1.18-7.9,3.2c-0.15,0.16-0.49,0.52-0.49,0.52l-12.06,12.81l-49.66,52.98
			h165.98c5.54,0,10.03-3.74,10.03-8.35v-52.81C761.18,1865.87,756.69,1862.14,751.15,1862.14z"/>
		<path class="st2" d="M355.18,2058.45l0-31.69l-36.36,0.04v40.47v12.47c0,4.37,3.38,7.9,7.54,7.9h91.22h16.95
			c3.09,0,6.04-1.28,8.14-3.54l11.69-12.54l42.02-45.06h-73.45C366.42,2026.5,355.18,2058.45,355.18,2058.45z"/>
	</g>
	<g>
		<polygon class="st2" points="189.8,2207.17 234.33,2207.17 237.66,2188.46 171.38,2188.46 153.39,2289.99 175.15,2289.99 
			182.4,2248.79 218.81,2248.79 222,2230.95 185.59,2230.95 		"/>
		<path class="st2" d="M295.25,2269.53c0-0.58,0.15-1.74,0.43-3.05l3.77-21.32c0.44-2.61,0.72-5.08,0.72-7.4
			c0-16.1-12.91-23.21-30.31-23.21c-20.45,0-32.64,7.83-36.84,24.08h20.45c1.74-5.22,4.93-9.14,14.94-9.14
			c6.96,0,11.89,2.9,11.89,8.27c0,1.02-0.15,2.47-0.44,3.63l-0.43,2.76h-17.99c-21.61,0-34.96,8.12-34.96,25.96
			c0,13.92,11.75,20.74,25.82,20.74c11.02,0,17.99-3.63,23.93-10.59v0.15c0,5.37,3.77,9.57,12.47,9.57h9.86l3.05-17.26h-2.9
			C296.26,2272.73,295.25,2271.57,295.25,2269.53z M276.83,2258.95c-1.74,9.43-8.41,17.11-19.87,17.11c-5.51,0-9.72-2.9-9.72-7.98
			c0-7.11,4.93-10.3,14.65-10.3h15.08L276.83,2258.95z"/>
		<path class="st2" d="M350.07,2228.92c8.12,0,12.91,3.48,12.91,9.86h19.29c0-16.1-14.07-24.37-32.05-24.37
			c-20.02,0-33.94,8.85-33.94,24.8c0,14.94,14.36,18.42,28.28,20.74c8.85,1.45,13.92,3.05,13.92,7.69c0,5.8-5.66,8.56-15.09,8.56
			c-7.83,0-13.78-3.48-14.07-11.31h-19c0,17.41,13.49,25.96,32.49,25.96c19.44,0,35.83-7.69,35.83-25.67
			c0-15.95-15.81-19.58-29.88-21.47c-7.4-1.02-12.62-2.61-12.62-6.96C336.15,2231.97,341.37,2228.92,350.07,2228.92z"/>
		<path class="st2" d="M430.28,2194.55h-20.45l-3.63,20.89h-12.33l-3.05,17.26h12.33l-6.09,34.52c-0.43,2.61-0.72,4.64-0.72,6.38
			c0,10.88,6.82,16.39,19.58,16.39H431l3.05-17.26h-10.88c-4.21,0-5.66-1.45-5.66-4.35c0-0.73,0.15-2.03,0.29-2.9l5.8-32.78h16.97
			l3.04-17.26h-16.97L430.28,2194.55z"/>
		<rect x="490.76" y="2188.46" class="st2" width="12.62" height="101.53"/>
		<path class="st2" d="M562.85,2215.14c-11.75,0-19.87,5.08-24.95,10.44l0.15-9.57h-10.3l-13.05,73.97h11.9l6.53-36.55
			c3.04-16.68,12.76-27.41,26.98-27.41c10.44,0,16.1,5.8,16.1,15.08c0,3.63-0.43,6.24-0.87,8.7l-7.11,40.18h11.89l7.25-40.76
			c0.58-3.34,0.87-6.38,0.87-9.14C588.23,2222.69,577.06,2215.14,562.85,2215.14z"/>
		<polygon class="st2" points="654.37,2216.01 621.44,2276.93 609.69,2216.01 597.65,2216.01 612.3,2289.99 626.66,2289.99 
			667.42,2216.01 		"/>
		<path class="st2" d="M707.02,2215.14c-23.5,0-41.48,18.57-41.48,43.8c0,18.42,12.91,31.91,32.2,31.91
			c23.5,0,41.48-18.57,41.48-43.8C739.22,2228.63,726.31,2215.14,707.02,2215.14z M698.75,2280.27c-12.33,0-21.18-8.85-21.18-21.9
			c0-17.55,11.02-32.64,28.43-32.64c12.33,0,21.18,8.85,21.18,21.9C727.18,2265.18,716.16,2280.27,698.75,2280.27z"/>
		<polygon class="st2" points="745.89,2289.99 757.78,2289.99 770.84,2216.01 758.94,2216.01 		"/>
		<path class="st2" d="M768.95,2188.16c-4.35,0-8.27,3.48-8.27,8.41c0,4.06,3.05,6.96,7.25,6.96c4.35,0,8.12-3.48,8.12-8.41
			C776.06,2191.07,773.16,2188.16,768.95,2188.16z"/>
		<path class="st2" d="M817.1,2225.73c10.15,0,17.7,5.66,18.71,15.52h11.6c-0.43-15.52-11.17-26.11-29.3-26.11
			c-24.95,0-40.47,18.28-40.47,43.51c0,18.28,12.91,32.2,32.06,32.2c16.53,0,30.6-8.41,34.66-26.4h-12.04
			c-3.34,10.44-11.46,15.81-21.47,15.81c-12.62,0-21.18-8.85-21.18-22.34C789.69,2240.67,799.26,2225.73,817.1,2225.73z"/>
		<path class="st2" d="M925.45,2255.76c0.87-3.77,1.16-7.54,1.16-11.75c0-17.26-11.31-28.86-29.73-28.86
			c-25.67,0-40.76,20.45-40.76,43.66c0,18.86,12.04,32.05,32.78,32.05c16.68,0,29.3-8.99,34.23-25.67h-12.04
			c-4.06,9.14-9.72,15.09-21.76,15.09c-14.94,0-21.18-10.44-21.18-21.76c0-0.87,0-1.74,0.15-2.76H925.45z M895.42,2225.59
			c11.31,0,18.42,6.38,18.42,17.26c0,1.01,0,1.59-0.15,2.61h-43.22C873.52,2233.85,883.09,2225.59,895.42,2225.59z"/>
	</g>
</g>
<rect x="-1166.22" y="1536.5" class="st2" width="1080" height="1080"/>
<rect y="2715.16" width="1080" height="1080"/>
<rect x="-1166.22" y="2715.16" class="st2" width="1080" height="1080"/>
<g>
	<path class="st2" d="M339.65,3192.02l-89.66,97.04h220.59c37.21,0,50.76-6.01,65.22-20.02l-78.58,84.09h194.22
		c7.91,0,14.31-6.65,14.31-14.93v-101.94c0-8.29-6.41-15-14.32-15h-46.53c-17.61,0-34.26,11.42-36.56,13.06l57.39-61.23H380.71
		C365.62,3173.09,351.04,3179.81,339.65,3192.02z"/>
	<path class="st2" d="M940.78,3041.15H758.8c-5.85,0-11.38,2.24-14.99,6.07c-0.28,0.3-0.94,0.99-0.94,0.99l-22.89,24.31
		l-94.26,100.57h315.05c10.52,0,19.04-7.09,19.04-15.85V3057C959.82,3048.25,951.3,3041.15,940.78,3041.15z"/>
	<path class="st2" d="M189.2,3413.77l0-60.15l-69.02,0.07v76.81v23.67c0,8.28,6.41,15,14.31,15h173.15h32.17
		c5.86,0,11.46-2.44,15.45-6.72l22.2-23.8l79.76-85.52H317.8C210.54,3353.13,189.2,3413.77,189.2,3413.77z"/>
</g>
<g>
	<path d="M-826.58,3192.02l-89.66,97.04h220.59c37.21,0,50.76-6.01,65.22-20.02l-78.58,84.09h194.22c7.91,0,14.31-6.65,14.31-14.93
		v-101.94c0-8.29-6.41-15-14.32-15h-46.53c-17.61,0-34.26,11.42-36.56,13.06l57.39-61.23h-245.02
		C-800.6,3173.09-815.19,3179.81-826.58,3192.02z"/>
	<path d="M-225.44,3041.15h-181.98c-5.85,0-11.38,2.24-14.99,6.07c-0.28,0.3-0.94,0.99-0.94,0.99l-22.89,24.31l-94.26,100.57h315.05
		c10.52,0,19.04-7.09,19.04-15.85V3057C-206.4,3048.25-214.92,3041.15-225.44,3041.15z"/>
	<path d="M-977.02,3413.77l0-60.15l-69.02,0.07v76.81v23.67c0,8.28,6.41,15,14.31,15h173.15h32.17c5.86,0,11.46-2.44,15.45-6.72
		l22.2-23.8l79.76-85.52h-139.42C-955.69,3353.13-977.02,3413.77-977.02,3413.77z"/>
</g>
<g>
	<g>
		<path d="M-731.78,1941.62l-47.24,51.13h116.22c19.61,0,26.75-3.16,34.37-10.55l0.02-0.02l-41.42,44.32h102.32
			c4.17,0,7.54-3.5,7.54-7.87v-53.71c0-4.37-3.38-7.9-7.54-7.9h-24.51c-9.28,0-18.05,6.02-19.26,6.88l30.24-32.26h-129.09
			C-718.1,1931.65-725.78,1935.19-731.78,1941.62z"/>
		<path d="M-415.07,1862.14h-95.88c-3.08,0-5.99,1.18-7.9,3.2c-0.15,0.16-0.49,0.52-0.49,0.52l-12.06,12.81l-49.66,52.98h165.98
			c5.54,0,10.03-3.74,10.03-8.35v-52.81C-405.04,1865.87-409.53,1862.14-415.07,1862.14z"/>
		<path d="M-811.04,2058.45l0-31.69l-36.36,0.04v40.47v12.47c0,4.37,3.38,7.9,7.54,7.9h91.22h16.95c3.09,0,6.04-1.28,8.14-3.54
			l11.69-12.54l42.02-45.06h-73.45C-799.8,2026.5-811.04,2058.45-811.04,2058.45z"/>
	</g>
	<g>
		<polygon points="-976.42,2207.17 -931.89,2207.17 -928.56,2188.46 -994.84,2188.46 -1012.83,2289.99 -991.07,2289.99 
			-983.82,2248.79 -947.41,2248.79 -944.22,2230.95 -980.63,2230.95 		"/>
		<path d="M-870.98,2269.53c0-0.58,0.15-1.74,0.43-3.05l3.77-21.32c0.44-2.61,0.72-5.08,0.72-7.4c0-16.1-12.91-23.21-30.31-23.21
			c-20.45,0-32.64,7.83-36.84,24.08h20.45c1.74-5.22,4.93-9.14,14.94-9.14c6.96,0,11.89,2.9,11.89,8.27c0,1.02-0.15,2.47-0.44,3.63
			l-0.43,2.76h-17.99c-21.61,0-34.96,8.12-34.96,25.96c0,13.92,11.75,20.74,25.82,20.74c11.02,0,17.99-3.63,23.93-10.59v0.15
			c0,5.37,3.77,9.57,12.47,9.57h9.86l3.05-17.26h-2.9C-869.96,2272.73-870.98,2271.57-870.98,2269.53z M-889.4,2258.95
			c-1.74,9.43-8.41,17.11-19.87,17.11c-5.51,0-9.72-2.9-9.72-7.98c0-7.11,4.93-10.3,14.65-10.3h15.08L-889.4,2258.95z"/>
		<path d="M-816.15,2228.92c8.12,0,12.91,3.48,12.91,9.86h19.29c0-16.1-14.07-24.37-32.05-24.37c-20.02,0-33.94,8.85-33.94,24.8
			c0,14.94,14.36,18.42,28.28,20.74c8.85,1.45,13.92,3.05,13.92,7.69c0,5.8-5.66,8.56-15.09,8.56c-7.83,0-13.78-3.48-14.07-11.31
			h-19c0,17.41,13.49,25.96,32.49,25.96c19.44,0,35.83-7.69,35.83-25.67c0-15.95-15.81-19.58-29.88-21.47
			c-7.4-1.02-12.62-2.61-12.62-6.96C-830.07,2231.97-824.85,2228.92-816.15,2228.92z"/>
		<path d="M-735.94,2194.55h-20.45l-3.63,20.89h-12.33l-3.05,17.26h12.33l-6.09,34.52c-0.43,2.61-0.72,4.64-0.72,6.38
			c0,10.88,6.82,16.39,19.58,16.39h15.09l3.05-17.26h-10.88c-4.21,0-5.66-1.45-5.66-4.35c0-0.73,0.15-2.03,0.29-2.9l5.8-32.78h16.97
			l3.04-17.26h-16.97L-735.94,2194.55z"/>
		<rect x="-675.46" y="2188.46" width="12.62" height="101.53"/>
		<path d="M-603.38,2215.14c-11.75,0-19.87,5.08-24.95,10.44l0.15-9.57h-10.3l-13.05,73.97h11.9l6.53-36.55
			c3.04-16.68,12.76-27.41,26.98-27.41c10.44,0,16.1,5.8,16.1,15.08c0,3.63-0.43,6.24-0.87,8.7l-7.11,40.18h11.89l7.25-40.76
			c0.58-3.34,0.87-6.38,0.87-9.14C-578,2222.69-589.16,2215.14-603.38,2215.14z"/>
		<polygon points="-511.86,2216.01 -544.78,2276.93 -556.53,2216.01 -568.57,2216.01 -553.92,2289.99 -539.56,2289.99 
			-498.8,2216.01 		"/>
		<path d="M-459.2,2215.14c-23.5,0-41.48,18.57-41.48,43.8c0,18.42,12.91,31.91,32.2,31.91c23.5,0,41.48-18.57,41.48-43.8
			C-427,2228.63-439.91,2215.14-459.2,2215.14z M-467.47,2280.27c-12.33,0-21.18-8.85-21.18-21.9c0-17.55,11.02-32.64,28.43-32.64
			c12.33,0,21.18,8.85,21.18,21.9C-439.04,2265.18-450.07,2280.27-467.47,2280.27z"/>
		<polygon points="-420.34,2289.99 -408.44,2289.99 -395.39,2216.01 -407.28,2216.01 		"/>
		<path d="M-397.27,2188.16c-4.35,0-8.27,3.48-8.27,8.41c0,4.06,3.05,6.96,7.25,6.96c4.35,0,8.12-3.48,8.12-8.41
			C-390.17,2191.07-393.07,2188.16-397.27,2188.16z"/>
		<path d="M-349.12,2225.73c10.15,0,17.7,5.66,18.71,15.52h11.6c-0.43-15.52-11.17-26.11-29.3-26.11
			c-24.95,0-40.47,18.28-40.47,43.51c0,18.28,12.91,32.2,32.06,32.2c16.53,0,30.6-8.41,34.66-26.4h-12.04
			c-3.34,10.44-11.46,15.81-21.47,15.81c-12.62,0-21.18-8.85-21.18-22.34C-376.54,2240.67-366.96,2225.73-349.12,2225.73z"/>
		<path d="M-240.78,2255.76c0.87-3.77,1.16-7.54,1.16-11.75c0-17.26-11.31-28.86-29.73-28.86c-25.67,0-40.76,20.45-40.76,43.66
			c0,18.86,12.04,32.05,32.78,32.05c16.68,0,29.3-8.99,34.23-25.67h-12.04c-4.06,9.14-9.72,15.09-21.76,15.09
			c-14.94,0-21.18-10.44-21.18-21.76c0-0.87,0-1.74,0.15-2.76H-240.78z M-270.8,2225.59c11.31,0,18.42,6.38,18.42,17.26
			c0,1.01,0,1.59-0.15,2.61h-43.22C-292.7,2233.85-283.13,2225.59-270.8,2225.59z"/>
	</g>
</g>
<g>
	<g>
		
			<text transform="matrix(1 0 0 1 -6092.2339 4469.8623)" class="st2" style="font-family:'AeonikProTRIAL-Regular'; font-size:130.8129px;">FAST INVOICE</text>
	</g>
	<g>
		
			<text transform="matrix(1 0 0 1 -6092.2339 4618.9351)" class="st2" style="font-family:'AeonikProTRIAL-Regular'; font-size:130.8129px;">Fast Invoice</text>
	</g>
	<g>
		<g>
			<path class="st2" d="M-6089.62,3907.14h72.6v16.87h-26.55v74.69h-19.62v-74.69h-26.42V3907.14z"/>
			<path class="st2" d="M-6006.55,3907.14h19.62v91.56h-19.62V3907.14z"/>
			<path class="st2" d="M-5971.36,3907.14h37.28c19.88,0,33.09,11.9,33.09,30.48c0,18.44-13.21,30.35-33.09,30.35h-17.66v30.74
				h-19.62V3907.14z M-5951.75,3923.49v28.12h15.83c9.16,0,15.04-5.36,15.04-14c0-8.76-5.89-14.13-15.04-14.13H-5951.75z"/>
			<path class="st2" d="M-5848.27,3999.49c-26.95,0-45.39-19.88-45.39-46.57c0-26.68,18.44-46.57,45.39-46.57
				c26.95,0,45.39,19.88,45.39,46.57C-5802.89,3979.61-5821.33,3999.49-5848.27,3999.49z M-5848.27,3982.88
				c15.3,0,25.25-12.69,25.25-29.96c0-17.27-9.94-29.95-25.25-29.95c-15.43,0-25.38,12.69-25.38,29.95
				C-5873.65,3970.19-5863.71,3982.88-5848.27,3982.88z"/>
			<path class="st2" d="M-5794.64,3952.93c0-28.12,17.27-46.57,45.39-46.57c22.11,0,37.67,13.6,40.03,33.36h-19.62
				c-2.35-10.07-9.68-16.74-20.93-16.74c-15.3,0-24.85,12.3-24.85,29.95c0,17.66,9.16,29.96,24.85,29.96
				c10.46,0,21.06-5.49,22.89-18.31v-1.18h-22.76v-15.57h40.94v50.88h-13.73l-1.96-10.99c-4.84,6.41-13.73,11.77-26.68,11.77
				C-5777.24,3999.49-5794.64,3981.05-5794.64,3952.93z"/>
			<path class="st2" d="M-5693,3907.14h37.28c20.14,0,33.62,11.9,33.62,30.48c0,11.77-6.15,21.19-15.7,25.77l18.05,35.32h-21.71
				l-15.43-30.74h-16.48v30.74H-5693V3907.14z M-5673.38,3923.49v28.12h16.09c9.29,0,15.17-5.49,15.17-14
				c0-8.63-5.89-14.13-15.17-14.13H-5673.38z"/>
			<path class="st2" d="M-5617.52,3998.71l33.49-91.56h23.55l33.22,91.56h-21.06l-7.06-20.01h-34.79l-7.06,20.01H-5617.52z
				 M-5584.95,3962.87h24.2l-12.16-34.79L-5584.95,3962.87z"/>
			<path class="st2" d="M-5518.89,3907.14h60.43v16.87h-40.81v21.45h33.49v16.09h-33.49v37.15h-19.62V3907.14z"/>
			<path class="st2" d="M-5447.73,3907.14h19.62v91.56h-19.62V3907.14z"/>
			<path class="st2" d="M-5419.86,3998.71l33.49-91.56h23.54l33.22,91.56h-21.06l-7.06-20.01h-34.79l-7.06,20.01H-5419.86z
				 M-5387.29,3962.87h24.2l-12.16-34.79L-5387.29,3962.87z"/>
			<path class="st2" d="M-5292.45,3952.93c0-28.12,17.14-46.57,44.87-46.57c21.71,0,37.02,13.6,39.37,33.49h-19.88
				c-2.35-10.2-9.68-16.87-20.54-16.87c-14.91,0-23.81,12.3-23.81,29.95c0,17.53,8.76,29.96,23.54,29.96
				c11.12,0,18.44-6.67,20.8-16.87h19.75c-2.22,19.88-18.05,33.49-40.42,33.49C-5275.97,3999.49-5292.45,3981.05-5292.45,3952.93z"
				/>
			<path class="st2" d="M-5156.41,3999.49c-26.95,0-45.39-19.88-45.39-46.57c0-26.68,18.44-46.57,45.39-46.57
				c26.95,0,45.39,19.88,45.39,46.57C-5111.02,3979.61-5129.47,3999.49-5156.41,3999.49z M-5156.41,3982.88
				c15.3,0,25.25-12.69,25.25-29.96c0-17.27-9.94-29.95-25.25-29.95c-15.43,0-25.38,12.69-25.38,29.95
				C-5181.79,3970.19-5171.85,3982.88-5156.41,3982.88z"/>
			<path class="st2" d="M-5099.11,3907.14h37.28c20.14,0,33.62,11.9,33.62,30.48c0,11.77-6.15,21.19-15.7,25.77l18.05,35.32h-21.71
				l-15.43-30.74h-16.48v30.74h-19.62V3907.14z M-5079.49,3923.49v28.12h16.09c9.29,0,15.17-5.49,15.17-14
				c0-8.63-5.89-14.13-15.17-14.13H-5079.49z"/>
			<path class="st2" d="M-5015.66,3907.14h37.28c19.88,0,33.09,11.9,33.09,30.48c0,18.44-13.21,30.35-33.09,30.35h-17.66v30.74
				h-19.62V3907.14z M-4996.04,3923.49v28.12h15.83c9.16,0,15.04-5.36,15.04-14c0-8.76-5.89-14.13-15.04-14.13H-4996.04z"/>
			<path class="st2" d="M-4892.57,3999.49c-26.95,0-45.39-19.88-45.39-46.57c0-26.68,18.44-46.57,45.39-46.57
				c26.95,0,45.39,19.88,45.39,46.57C-4847.18,3979.61-4865.62,3999.49-4892.57,3999.49z M-4892.57,3982.88
				c15.3,0,25.25-12.69,25.25-29.96c0-17.27-9.94-29.95-25.25-29.95c-15.43,0-25.38,12.69-25.38,29.95
				C-4917.94,3970.19-4908,3982.88-4892.57,3982.88z"/>
			<path class="st2" d="M-4835.27,3907.14h37.28c20.14,0,33.62,11.9,33.62,30.48c0,11.77-6.15,21.19-15.7,25.77l18.05,35.32h-21.71
				l-15.43-30.74h-16.48v30.74h-19.62V3907.14z M-4815.65,3923.49v28.12h16.09c9.29,0,15.17-5.49,15.17-14
				c0-8.63-5.89-14.13-15.17-14.13H-4815.65z"/>
			<path class="st2" d="M-4759.79,3998.71l33.49-91.56h23.55l33.22,91.56h-21.06l-7.06-20.01h-34.79l-7.06,20.01H-4759.79z
				 M-4727.22,3962.87h24.2l-12.16-34.79L-4727.22,3962.87z"/>
			<path class="st2" d="M-4679.21,3907.14h72.6v16.87h-26.55v74.69h-19.62v-74.69h-26.42V3907.14z"/>
			<path class="st2" d="M-4596.14,3907.14h19.62v91.56h-19.62V3907.14z"/>
			<path class="st2" d="M-4568.8,3907.14h20.8l21.98,67.76l22.5-67.76h20.28l-31,91.56h-23.41L-4568.8,3907.14z"/>
			<path class="st2" d="M-4494.76,3998.71l33.49-91.56h23.54l33.22,91.56h-21.06l-7.06-20.01h-34.79l-7.06,20.01H-4494.76z
				 M-4462.19,3962.87h24.2l-12.16-34.79L-4462.19,3962.87z"/>
			<path class="st2" d="M-4397.18,3945.86c0-4.84,3.27-8.24,7.85-8.24c4.58,0,7.59,3.4,7.72,8.24c0,4.58-3.01,8.11-7.85,8.11
				C-4394.04,3953.97-4397.18,3950.44-4397.18,3945.86z M-4397.18,3992.04c0-4.84,3.27-8.24,7.85-8.24c4.58,0,7.59,3.4,7.72,8.24
				c0,4.58-3.01,8.11-7.85,8.11C-4394.04,4000.15-4397.18,3996.61-4397.18,3992.04z"/>
			<path class="st2" d="M-6090.79,4155.68l34.92-91.56h13.47l34.79,91.56h-12.17l-9.68-24.72h-39.89l-9.68,24.72H-6090.79z
				 M-6065.94,4120.63h33.09l-16.61-44.08L-6065.94,4120.63z"/>
			<path class="st2" d="M-6004.07,4122.33c0-20.27,12.82-34.14,31.65-34.14c18.83,0,31.13,11.9,31.65,31.65
				c0,1.44-0.13,3.01-0.26,4.58h-51.8v0.92c0.39,12.69,8.37,21.58,21.06,21.58c9.42,0,16.74-4.97,18.97-13.6h10.86
				c-2.62,13.34-13.6,23.15-29.04,23.15C-5990.99,4156.47-6004.07,4142.73-6004.07,4122.33z M-5952.27,4115.53
				c-1.05-11.51-8.89-17.92-20.01-17.92c-9.81,0-18.84,7.06-19.88,17.92H-5952.27z"/>
			<path class="st2" d="M-5930.81,4122.33c0-20.27,13.6-34.14,33.09-34.14c19.49,0,33.09,13.86,33.09,34.14
				c0,20.27-13.6,34.14-33.09,34.14C-5917.21,4156.47-5930.81,4142.6-5930.81,4122.33z M-5875.61,4122.33
				c0-14.26-8.89-24.59-22.1-24.59c-13.21,0-22.11,10.33-22.11,24.59c0,14.26,8.89,24.59,22.11,24.59
				C-5884.51,4146.92-5875.61,4136.59-5875.61,4122.33z"/>
			<path class="st2" d="M-5792.68,4118.53v37.15h-10.73v-36.49c0-13.86-6.41-21.19-18.05-21.19c-12.56,0-20.14,9.29-20.14,24.33
				v33.36h-10.73v-66.71h9.29l1.44,9.03c3.92-5.1,10.73-9.81,21.97-9.81C-5804.58,4088.19-5792.68,4096.43-5792.68,4118.53z"/>
			<path class="st2" d="M-5780.38,4070.79c0-4.05,3.01-6.93,6.93-6.93s6.93,2.88,6.93,6.93c0,4.05-3.01,6.93-6.93,6.93
				S-5780.38,4074.85-5780.38,4070.79z M-5778.94,4088.97h10.73v66.71h-10.73V4088.97z"/>
			<path class="st2" d="M-5753.57,4064.12h10.73v60.3l33.49-35.45h13.21l-26.03,27.6l27.86,39.11h-12.95l-22.11-31.39l-13.47,13.87
				v17.53h-10.73V4064.12z"/>
			<path class="st2" d="M-5650.88,4064.12h35.19c18.31,0,30.35,10.99,30.35,28.12s-12.03,28.25-30.35,28.25h-23.81v35.19h-11.38
				V4064.12z M-5639.5,4074.58v35.45h22.76c12.03,0,19.75-6.93,19.75-17.79c0-10.86-7.59-17.66-19.62-17.66H-5639.5z"/>
			<path class="st2" d="M-5540.87,4088.97v10.46h-5.36c-14,0-17.79,11.64-17.79,22.24v34.01h-10.73v-66.71h9.29l1.44,10.07
				c3.14-5.1,8.24-10.07,20.14-10.07H-5540.87z"/>
			<path class="st2" d="M-5537.73,4122.33c0-20.27,13.6-34.14,33.09-34.14c19.49,0,33.09,13.86,33.09,34.14
				c0,20.27-13.6,34.14-33.09,34.14C-5524.12,4156.47-5537.73,4142.6-5537.73,4122.33z M-5482.53,4122.33
				c0-14.26-8.89-24.59-22.1-24.59c-13.21,0-22.11,10.33-22.11,24.59c0,14.26,8.89,24.59,22.11,24.59
				C-5491.42,4146.92-5482.53,4136.59-5482.53,4122.33z"/>
		</g>
	</g>
	<polygon class="st2" points="-5447.73,3900.02 -5428.11,3900.02 -5417.7,3889.62 -5436.06,3889.62 	"/>
</g>
<g>
	<g>
		<g>
			<path class="st8" d="M-5940.05,2843.33l-62.17,67.29h152.97c25.81,0,35.2-4.17,45.23-13.89l62.36-66.53h-169.91
				C-5922.04,2830.2-5932.15,2834.86-5940.05,2843.33z"/>
			<path class="st8" d="M-5523.2,2738.71h-126.19c-4.06,0-7.89,1.55-10.39,4.21c-0.2,0.21-0.65,0.69-0.65,0.69l-15.87,16.86
				l-65.36,69.74h218.46c7.29,0,13.2-4.92,13.2-10.99v-69.51C-5510,2743.63-5515.91,2738.71-5523.2,2738.71z"/>
		</g>
		<path class="st8" d="M-5858.52,2955.05l-55.31,59.3l-15.39,16.5c-2.77,2.97-6.65,4.66-10.72,4.66h-22.31h-120.07
			c-5.48,0-9.93-4.66-9.93-10.4v-16.41v-53.27l47.86-0.05l0,41.71c0,0,14.79-42.05,89.17-42.05H-5858.52l76.85-82.24
			c0,0,12.4-9.21,25.56-9.21h32.27c5.48,0,9.93,4.66,9.93,10.4l0,70.69c0,5.75-4.44,10.36-9.92,10.36H-5858.52z"/>
	</g>
	<g>
		<polygon class="st8" points="-5498.25,2909.75 -5440.09,2909.75 -5440.09,2885.7 -5526.21,2885.7 -5526.21,3016.2 
			-5498.25,3016.2 -5498.25,2963.25 -5450.53,2963.25 -5450.53,2940.32 -5498.25,2940.32 		"/>
		<path class="st8" d="M-5401.49,2885.7l-47.72,130.5h28.89l10.07-28.52h49.59l10.07,28.52h30.02l-47.35-130.5H-5401.49z
			 M-5402.8,2965.12l17.15-49.59l17.34,49.59H-5402.8z"/>
		<path class="st8" d="M-5255.52,2939.02c-21.62-4.1-31.88-6.34-31.88-16.96c0-10.07,8.57-15.1,20.51-15.1
			c13.61,0,22,7.64,23.3,18.64h27.4c-0.37-24.98-19.95-41.01-50.71-41.01c-29.45,0-48.66,16.41-48.66,39.52
			c0,26.47,19.39,33.56,41.39,37.66c21.81,4.29,32.44,6.52,32.44,17.52c0,10.25-9.51,15.85-22.37,15.85
			c-16.03,0-26.1-8.76-27.03-21.44l-27.4-0.37c0.19,26.47,20.88,44,54.06,44c30.57,0,50.71-16.78,50.89-41.2
			C-5213.38,2949.83-5233.14,2943.12-5255.52,2939.02z"/>
		<polygon class="st8" points="-5209.46,2909.75 -5171.8,2909.75 -5171.8,3016.2 -5143.84,3016.2 -5143.84,2909.75 -5106,2909.75 
			-5106,2885.7 -5209.46,2885.7 		"/>
		<rect x="-5044.85" y="2885.7" class="st8" width="27.96" height="130.5"/>
		<polygon class="st8" points="-4913.97,2967.91 -4969.34,2885.7 -4994.7,2885.7 -4994.7,3016.2 -4967.29,3016.2 -4967.29,2933.98 
			-4911.92,3016.2 -4886.38,3016.2 -4886.38,2885.7 -4913.97,2885.7 		"/>
		<polygon class="st8" points="-4814.42,2982.27 -4845.74,2885.7 -4875.38,2885.7 -4831.01,3016.2 -4797.64,3016.2 -4753.45,2885.7 
			-4782.35,2885.7 		"/>
		<path class="st8" d="M-4688.76,2884.58c-38.4,0-64.69,28.34-64.69,66.37c0,38.03,26.29,66.37,64.69,66.37
			c38.4,0,64.69-28.34,64.69-66.37C-4624.07,2912.92-4650.36,2884.58-4688.76,2884.58z M-4688.76,2993.64
			c-22,0-36.17-18.08-36.17-42.69c0-24.61,14.17-42.69,36.17-42.69c21.81,0,35.98,18.08,35.98,42.69
			C-4652.78,2975.56-4666.95,2993.64-4688.76,2993.64z"/>
		<rect x="-4607.1" y="2885.7" class="st8" width="27.96" height="130.5"/>
		<path class="st8" d="M-4499.72,2908.26c15.47,0,25.91,9.51,29.27,24.05h28.34c-3.36-28.34-25.17-47.72-56.11-47.72
			c-39.52,0-63.94,26.29-63.94,66.37c0,40.08,23.49,66.37,62.27,66.37c31.88,0,54.43-19.39,57.6-47.72h-28.15
			c-3.35,14.54-13.8,24.05-29.64,24.05c-21.07,0-33.56-17.71-33.56-42.69C-4533.65,2925.78-4520.97,2908.26-4499.72,2908.26z"/>
		<polygon class="st8" points="-4398.48,2992.15 -4398.48,2961.95 -4350.01,2961.95 -4350.01,2939.02 -4398.48,2939.02 
			-4398.48,2909.75 -4338.83,2909.75 -4338.83,2885.7 -4426.45,2885.7 -4426.45,3016.2 -4336.78,3016.2 -4336.78,2992.15 		"/>
	</g>
</g>
<g>
	<g>
		<g>
			<path d="M-5940.05,3349.85l-62.17,67.29h152.97c25.81,0,35.2-4.17,45.23-13.89l62.36-66.53h-169.91
				C-5922.04,3336.72-5932.15,3341.39-5940.05,3349.85z"/>
			<path d="M-5523.2,3245.23h-126.19c-4.06,0-7.89,1.55-10.39,4.21c-0.2,0.21-0.65,0.69-0.65,0.69l-15.87,16.86l-65.36,69.74h218.46
				c7.29,0,13.2-4.92,13.2-10.99v-69.51C-5510,3250.15-5515.91,3245.23-5523.2,3245.23z"/>
		</g>
		<path d="M-5858.52,3461.57l-55.31,59.3l-15.39,16.5c-2.77,2.97-6.65,4.66-10.72,4.66h-22.31h-120.07c-5.48,0-9.93-4.66-9.93-10.4
			v-16.41v-53.27l47.86-0.05l0,41.71c0,0,14.79-42.05,89.17-42.05H-5858.52l76.85-82.24c0,0,12.4-9.21,25.56-9.21h32.27
			c5.48,0,9.93,4.66,9.93,10.4l0,70.69c0,5.75-4.44,10.36-9.92,10.36H-5858.52z"/>
	</g>
	<g>
		<polygon points="-5498.25,3416.27 -5440.09,3416.27 -5440.09,3392.22 -5526.21,3392.22 -5526.21,3522.72 -5498.25,3522.72 
			-5498.25,3469.77 -5450.53,3469.77 -5450.53,3446.84 -5498.25,3446.84 		"/>
		<path d="M-5401.49,3392.22l-47.72,130.5h28.89l10.07-28.52h49.59l10.07,28.52h30.02l-47.35-130.5H-5401.49z M-5402.8,3471.64
			l17.15-49.59l17.34,49.59H-5402.8z"/>
		<path d="M-5255.52,3445.54c-21.62-4.1-31.88-6.34-31.88-16.96c0-10.07,8.57-15.1,20.51-15.1c13.61,0,22,7.64,23.3,18.64h27.4
			c-0.37-24.98-19.95-41.01-50.71-41.01c-29.45,0-48.66,16.41-48.66,39.52c0,26.47,19.39,33.56,41.39,37.66
			c21.81,4.29,32.44,6.52,32.44,17.52c0,10.25-9.51,15.85-22.37,15.85c-16.03,0-26.1-8.76-27.03-21.44l-27.4-0.37
			c0.19,26.47,20.88,44,54.06,44c30.57,0,50.71-16.78,50.89-41.2C-5213.38,3456.35-5233.14,3449.64-5255.52,3445.54z"/>
		<polygon points="-5209.46,3416.27 -5171.8,3416.27 -5171.8,3522.72 -5143.84,3522.72 -5143.84,3416.27 -5106,3416.27 
			-5106,3392.22 -5209.46,3392.22 		"/>
		<rect x="-5044.85" y="3392.22" width="27.96" height="130.5"/>
		<polygon points="-4913.97,3474.43 -4969.34,3392.22 -4994.7,3392.22 -4994.7,3522.72 -4967.29,3522.72 -4967.29,3440.51 
			-4911.92,3522.72 -4886.38,3522.72 -4886.38,3392.22 -4913.97,3392.22 		"/>
		<polygon points="-4814.42,3488.79 -4845.74,3392.22 -4875.38,3392.22 -4831.01,3522.72 -4797.64,3522.72 -4753.45,3392.22 
			-4782.35,3392.22 		"/>
		<path d="M-4688.76,3391.1c-38.4,0-64.69,28.34-64.69,66.37c0,38.03,26.29,66.37,64.69,66.37c38.4,0,64.69-28.34,64.69-66.37
			C-4624.07,3419.44-4650.36,3391.1-4688.76,3391.1z M-4688.76,3500.16c-22,0-36.17-18.08-36.17-42.69
			c0-24.61,14.17-42.69,36.17-42.69c21.81,0,35.98,18.08,35.98,42.69C-4652.78,3482.08-4666.95,3500.16-4688.76,3500.16z"/>
		<rect x="-4607.1" y="3392.22" width="27.96" height="130.5"/>
		<path d="M-4499.72,3414.78c15.47,0,25.91,9.51,29.27,24.05h28.34c-3.36-28.34-25.17-47.72-56.11-47.72
			c-39.52,0-63.94,26.29-63.94,66.37c0,40.08,23.49,66.37,62.27,66.37c31.88,0,54.43-19.39,57.6-47.72h-28.15
			c-3.35,14.54-13.8,24.05-29.64,24.05c-21.07,0-33.56-17.71-33.56-42.69C-4533.65,3432.3-4520.97,3414.78-4499.72,3414.78z"/>
		<polygon points="-4398.48,3498.67 -4398.48,3468.47 -4350.01,3468.47 -4350.01,3445.54 -4398.48,3445.54 -4398.48,3416.27 
			-4338.83,3416.27 -4338.83,3392.22 -4426.45,3392.22 -4426.45,3522.72 -4336.78,3522.72 -4336.78,3498.67 		"/>
	</g>
</g>
<g>
	<g>
		<g>
			<path class="st1" d="M-5940.05,1682.03l-62.17,67.29h152.97c25.81,0,35.2-4.17,45.23-13.89l62.36-66.53h-169.91
				C-5922.04,1668.9-5932.15,1673.57-5940.05,1682.03z"/>
			<path class="st1" d="M-5523.2,1577.41h-126.19c-4.06,0-7.89,1.55-10.39,4.21c-0.2,0.21-0.65,0.69-0.65,0.69l-15.87,16.86
				l-65.36,69.74h218.46c7.29,0,13.2-4.92,13.2-10.99v-69.51C-5510,1582.33-5515.91,1577.41-5523.2,1577.41z"/>
		</g>
		<path class="st1" d="M-5858.52,1793.75l-55.31,59.3l-15.39,16.5c-2.77,2.97-6.65,4.66-10.72,4.66h-22.31h-120.07
			c-5.48,0-9.93-4.66-9.93-10.4v-16.41v-53.27l47.86-0.05l0,41.71c0,0,14.79-42.05,89.17-42.05H-5858.52l76.85-82.24
			c0,0,12.4-9.21,25.56-9.21h32.27c5.48,0,9.93,4.66,9.93,10.4l0,70.69c0,5.75-4.44,10.36-9.92,10.36H-5858.52z"/>
	</g>
	<g>
		<polygon class="st1" points="-5498.25,1748.45 -5440.09,1748.45 -5440.09,1724.4 -5526.21,1724.4 -5526.21,1854.9 
			-5498.25,1854.9 -5498.25,1801.95 -5450.53,1801.95 -5450.53,1779.02 -5498.25,1779.02 		"/>
		<path class="st1" d="M-5401.49,1724.4l-47.72,130.5h28.89l10.07-28.52h49.59l10.07,28.52h30.02l-47.35-130.5H-5401.49z
			 M-5402.8,1803.82l17.15-49.59l17.34,49.59H-5402.8z"/>
		<path class="st1" d="M-5255.52,1777.72c-21.62-4.1-31.88-6.34-31.88-16.96c0-10.07,8.57-15.1,20.51-15.1
			c13.61,0,22,7.64,23.3,18.64h27.4c-0.37-24.98-19.95-41.01-50.71-41.01c-29.45,0-48.66,16.41-48.66,39.52
			c0,26.47,19.39,33.56,41.39,37.66c21.81,4.29,32.44,6.52,32.44,17.52c0,10.25-9.51,15.85-22.37,15.85
			c-16.03,0-26.1-8.76-27.03-21.44l-27.4-0.37c0.19,26.47,20.88,44,54.06,44c30.57,0,50.71-16.78,50.89-41.2
			C-5213.38,1788.53-5233.14,1781.82-5255.52,1777.72z"/>
		<polygon class="st1" points="-5209.46,1748.45 -5171.8,1748.45 -5171.8,1854.9 -5143.84,1854.9 -5143.84,1748.45 -5106,1748.45 
			-5106,1724.4 -5209.46,1724.4 		"/>
		<rect x="-5044.85" y="1724.4" class="st1" width="27.96" height="130.5"/>
		<polygon class="st1" points="-4913.97,1806.61 -4969.34,1724.4 -4994.7,1724.4 -4994.7,1854.9 -4967.29,1854.9 -4967.29,1772.69 
			-4911.92,1854.9 -4886.38,1854.9 -4886.38,1724.4 -4913.97,1724.4 		"/>
		<polygon class="st1" points="-4814.42,1820.97 -4845.74,1724.4 -4875.38,1724.4 -4831.01,1854.9 -4797.64,1854.9 -4753.45,1724.4 
			-4782.35,1724.4 		"/>
		<path class="st1" d="M-4688.76,1723.28c-38.4,0-64.69,28.34-64.69,66.37c0,38.03,26.29,66.37,64.69,66.37
			c38.4,0,64.69-28.34,64.69-66.37C-4624.07,1751.62-4650.36,1723.28-4688.76,1723.28z M-4688.76,1832.34
			c-22,0-36.17-18.08-36.17-42.69c0-24.61,14.17-42.69,36.17-42.69c21.81,0,35.98,18.08,35.98,42.69
			C-4652.78,1814.26-4666.95,1832.34-4688.76,1832.34z"/>
		<rect x="-4607.1" y="1724.4" class="st1" width="27.96" height="130.5"/>
		<path class="st1" d="M-4499.72,1746.96c15.47,0,25.91,9.51,29.27,24.05h28.34c-3.36-28.34-25.17-47.72-56.11-47.72
			c-39.52,0-63.94,26.29-63.94,66.37c0,40.08,23.49,66.37,62.27,66.37c31.88,0,54.43-19.39,57.6-47.72h-28.15
			c-3.35,14.54-13.8,24.05-29.64,24.05c-21.07,0-33.56-17.71-33.56-42.69C-4533.65,1764.48-4520.97,1746.96-4499.72,1746.96z"/>
		<polygon class="st1" points="-4398.48,1830.85 -4398.48,1800.65 -4350.01,1800.65 -4350.01,1777.72 -4398.48,1777.72 
			-4398.48,1748.45 -4338.83,1748.45 -4338.83,1724.4 -4426.45,1724.4 -4426.45,1854.9 -4336.78,1854.9 -4336.78,1830.85 		"/>
	</g>
</g>
<g>
	<g>
		<g>
			<path class="st0" d="M-5940.05,2188.55l-62.17,67.29h152.97c25.81,0,35.2-4.17,45.23-13.89l62.36-66.53h-169.91
				C-5922.04,2175.43-5932.15,2180.09-5940.05,2188.55z"/>
			<path class="st0" d="M-5523.2,2083.93h-126.19c-4.06,0-7.89,1.55-10.39,4.21c-0.2,0.21-0.65,0.69-0.65,0.69l-15.87,16.86
				l-65.36,69.74h218.46c7.29,0,13.2-4.92,13.2-10.99v-69.51C-5510,2088.85-5515.91,2083.93-5523.2,2083.93z"/>
		</g>
		<path class="st0" d="M-5858.52,2300.27l-55.31,59.3l-15.39,16.5c-2.77,2.97-6.65,4.66-10.72,4.66h-22.31h-120.07
			c-5.48,0-9.93-4.66-9.93-10.4v-16.41v-53.27l47.86-0.05l0,41.71c0,0,14.79-42.05,89.17-42.05H-5858.52l76.85-82.24
			c0,0,12.4-9.21,25.56-9.21h32.27c5.48,0,9.93,4.66,9.93,10.4l0,70.69c0,5.75-4.44,10.36-9.92,10.36H-5858.52z"/>
	</g>
	<g>
		<polygon class="st0" points="-5498.25,2254.97 -5440.09,2254.97 -5440.09,2230.92 -5526.21,2230.92 -5526.21,2361.42 
			-5498.25,2361.42 -5498.25,2308.47 -5450.53,2308.47 -5450.53,2285.54 -5498.25,2285.54 		"/>
		<path class="st0" d="M-5401.49,2230.92l-47.72,130.5h28.89l10.07-28.52h49.59l10.07,28.52h30.02l-47.35-130.5H-5401.49z
			 M-5402.8,2310.34l17.15-49.59l17.34,49.59H-5402.8z"/>
		<path class="st0" d="M-5255.52,2284.24c-21.62-4.1-31.88-6.34-31.88-16.96c0-10.07,8.57-15.1,20.51-15.1
			c13.61,0,22,7.64,23.3,18.64h27.4c-0.37-24.98-19.95-41.01-50.71-41.01c-29.45,0-48.66,16.41-48.66,39.52
			c0,26.47,19.39,33.56,41.39,37.66c21.81,4.29,32.44,6.52,32.44,17.52c0,10.25-9.51,15.85-22.37,15.85
			c-16.03,0-26.1-8.76-27.03-21.44l-27.4-0.37c0.19,26.47,20.88,44,54.06,44c30.57,0,50.71-16.78,50.89-41.2
			C-5213.38,2295.05-5233.14,2288.34-5255.52,2284.24z"/>
		<polygon class="st0" points="-5209.46,2254.97 -5171.8,2254.97 -5171.8,2361.42 -5143.84,2361.42 -5143.84,2254.97 -5106,2254.97 
			-5106,2230.92 -5209.46,2230.92 		"/>
		<rect x="-5044.85" y="2230.92" class="st0" width="27.96" height="130.5"/>
		<polygon class="st0" points="-4913.97,2313.14 -4969.34,2230.92 -4994.7,2230.92 -4994.7,2361.42 -4967.29,2361.42 
			-4967.29,2279.21 -4911.92,2361.42 -4886.38,2361.42 -4886.38,2230.92 -4913.97,2230.92 		"/>
		<polygon class="st0" points="-4814.42,2327.49 -4845.74,2230.92 -4875.38,2230.92 -4831.01,2361.42 -4797.64,2361.42 
			-4753.45,2230.92 -4782.35,2230.92 		"/>
		<path class="st0" d="M-4688.76,2229.8c-38.4,0-64.69,28.34-64.69,66.37c0,38.03,26.29,66.37,64.69,66.37
			c38.4,0,64.69-28.34,64.69-66.37C-4624.07,2258.14-4650.36,2229.8-4688.76,2229.8z M-4688.76,2338.86
			c-22,0-36.17-18.08-36.17-42.69c0-24.61,14.17-42.69,36.17-42.69c21.81,0,35.98,18.08,35.98,42.69
			C-4652.78,2320.78-4666.95,2338.86-4688.76,2338.86z"/>
		<rect x="-4607.1" y="2230.92" class="st0" width="27.96" height="130.5"/>
		<path class="st0" d="M-4499.72,2253.48c15.47,0,25.91,9.51,29.27,24.05h28.34c-3.36-28.34-25.17-47.72-56.11-47.72
			c-39.52,0-63.94,26.29-63.94,66.37c0,40.08,23.49,66.37,62.27,66.37c31.88,0,54.43-19.39,57.6-47.72h-28.15
			c-3.35,14.54-13.8,24.05-29.64,24.05c-21.07,0-33.56-17.71-33.56-42.69C-4533.65,2271-4520.97,2253.48-4499.72,2253.48z"/>
		<polygon class="st0" points="-4398.48,2337.37 -4398.48,2307.17 -4350.01,2307.17 -4350.01,2284.24 -4398.48,2284.24 
			-4398.48,2254.97 -4338.83,2254.97 -4338.83,2230.92 -4426.45,2230.92 -4426.45,2361.42 -4336.78,2361.42 -4336.78,2337.37 		"/>
	</g>
</g>
<g>
	<g>
		<path class="st8" d="M-3571.55,2449.84l-89.66,97.04h220.59c37.21,0,50.76-6.01,65.22-20.02l-78.58,84.09h194.22
			c7.91,0,14.31-6.65,14.31-14.93v-101.94c0-8.29-6.41-15-14.32-15h-46.53c-17.61,0-34.26,11.42-36.56,13.06l57.39-61.23h-245.02
			C-3545.58,2430.91-3560.16,2437.63-3571.55,2449.84z"/>
		<path class="st8" d="M-2970.41,2298.97h-181.98c-5.85,0-11.38,2.24-14.99,6.07c-0.28,0.3-0.94,0.99-0.94,0.99l-22.89,24.31
			l-94.26,100.57h315.05c10.52,0,19.04-7.09,19.04-15.85v-100.24C-2951.37,2306.07-2959.9,2298.97-2970.41,2298.97z"/>
		<path class="st8" d="M-3721.99,2671.59l0-60.15l-69.02,0.07v76.81v23.67c0,8.28,6.41,15,14.31,15h173.15h32.17
			c5.86,0,11.46-2.44,15.45-6.72l22.2-23.8l79.76-85.52h-139.42C-3700.66,2610.95-3721.99,2671.59-3721.99,2671.59z"/>
	</g>
	<g>
		<path d="M-2202.17,2449.84l-89.66,97.04h220.59c37.21,0,50.76-6.01,65.22-20.02l-78.58,84.09h194.22
			c7.91,0,14.31-6.65,14.31-14.93v-101.94c0-8.29-6.41-15-14.32-15h-46.53c-17.61,0-34.26,11.42-36.56,13.06l57.39-61.23h-245.02
			C-2176.19,2430.91-2190.78,2437.63-2202.17,2449.84z"/>
		<path d="M-1601.03,2298.97h-181.98c-5.85,0-11.38,2.24-14.99,6.07c-0.28,0.3-0.94,0.99-0.94,0.99l-22.89,24.31l-94.26,100.57
			h315.05c10.52,0,19.04-7.09,19.04-15.85v-100.24C-1581.99,2306.07-1590.51,2298.97-1601.03,2298.97z"/>
		<path d="M-2352.61,2671.59l0-60.15l-69.02,0.07v76.81v23.67c0,8.28,6.41,15,14.31,15h173.15h32.17c5.86,0,11.46-2.44,15.45-6.72
			l22.2-23.8l79.76-85.52h-139.42C-2331.28,2610.95-2352.61,2671.59-2352.61,2671.59z"/>
	</g>
	<g>
		<path class="st1" d="M-3571.55,1754.25l-89.66,97.04h220.59c37.21,0,50.76-6.01,65.22-20.02l-78.58,84.09h194.22
			c7.91,0,14.31-6.65,14.31-14.93v-101.94c0-8.29-6.41-15-14.32-15h-46.53c-17.61,0-34.26,11.42-36.56,13.06l57.39-61.23h-245.02
			C-3545.58,1735.32-3560.16,1742.04-3571.55,1754.25z"/>
		<path class="st1" d="M-2970.41,1603.38h-181.98c-5.85,0-11.38,2.24-14.99,6.07c-0.28,0.3-0.94,0.99-0.94,0.99l-22.89,24.31
			l-94.26,100.57h315.05c10.52,0,19.04-7.09,19.04-15.85v-100.24C-2951.37,1610.47-2959.9,1603.38-2970.41,1603.38z"/>
		<path class="st1" d="M-3721.99,1976l0-60.15l-69.02,0.07v76.81v23.67c0,8.28,6.41,15,14.31,15h173.15h32.17
			c5.86,0,11.46-2.44,15.45-6.72l22.2-23.8l79.76-85.52h-139.42C-3700.66,1915.36-3721.99,1976-3721.99,1976z"/>
	</g>
	<g>
		<path class="st0" d="M-2202.17,1754.25l-89.66,97.04h220.59c37.21,0,50.76-6.01,65.22-20.02l-78.58,84.09h194.22
			c7.91,0,14.31-6.65,14.31-14.93v-101.94c0-8.29-6.41-15-14.32-15h-46.53c-17.61,0-34.26,11.42-36.56,13.06l57.39-61.23h-245.02
			C-2176.19,1735.32-2190.78,1742.04-2202.17,1754.25z"/>
		<path class="st0" d="M-1601.03,1603.38h-181.98c-5.85,0-11.38,2.24-14.99,6.07c-0.28,0.3-0.94,0.99-0.94,0.99l-22.89,24.31
			l-94.26,100.57h315.05c10.52,0,19.04-7.09,19.04-15.85v-100.24C-1581.99,1610.47-1590.51,1603.38-1601.03,1603.38z"/>
		<path class="st0" d="M-2352.61,1976l0-60.15l-69.02,0.07v76.81v23.67c0,8.28,6.41,15,14.31,15h173.15h32.17
			c5.86,0,11.46-2.44,15.45-6.72l22.2-23.8l79.76-85.52h-139.42C-2331.28,1915.36-2352.61,1976-2352.61,1976z"/>
	</g>
	<g>
		<polygon class="st7" points="-3897.65,3072.21 -3897.65,3605.9 -3722.36,3605.9 -3627.86,3504.4 -2951.37,3503.78 
			-2951.37,2959.34 -3117.05,2959.34 -3223.6,3072.21 		"/>
		<g>
			<path d="M-3650.31,3204.82c12.84-13.76,29.27-21.34,46.28-21.34h631.2c11.85,0,21.46-8,21.46-17.86v-112.97
				c0-9.86-9.61-17.86-21.46-17.86h-205.09c-6.59,0-12.71,2.49-16.77,6.81l-26.96,28.55l-207.57,221.47
				c-16.3,15.81-31.57,22.58-73.51,22.58h-248.61L-3650.31,3204.82z"/>
			<path d="M-3517.8,3386.39l-89.89,96.38l-25.02,26.82c-4.5,4.83-10.81,7.57-17.41,7.57h-36.26h-195.14
				c-8.91,0-16.13-7.57-16.13-16.91v-26.67v-86.57l77.79-0.08l0,67.79c0,0,24.04-68.34,144.93-68.34H-3517.8l124.9-133.66
				c0,0,20.15-14.96,41.54-14.96h52.44c8.91,0,16.13,7.57,16.13,16.91v114.88c0,9.34-7.22,16.83-16.13,16.83H-3517.8z"/>
		</g>
	</g>
	<g>
		<polygon points="-2504.45,3072.21 -2504.45,3605.9 -2329.16,3605.9 -2234.66,3504.4 -1558.18,3503.78 -1558.18,2959.34 
			-1723.85,2959.34 -1830.4,3072.21 		"/>
		<g>
			<path class="st7" d="M-2257.12,3204.82c12.84-13.76,29.27-21.34,46.28-21.34h631.2c11.85,0,21.46-8,21.46-17.86v-112.97
				c0-9.86-9.61-17.86-21.46-17.86h-205.09c-6.59,0-12.71,2.49-16.77,6.81l-26.96,28.55l-207.57,221.47
				c-16.3,15.81-31.57,22.58-73.51,22.58h-248.61L-2257.12,3204.82z"/>
			<path class="st7" d="M-2124.61,3386.39l-89.89,96.38l-25.02,26.82c-4.5,4.83-10.81,7.57-17.41,7.57h-36.26h-195.14
				c-8.91,0-16.13-7.57-16.13-16.91v-26.67v-86.57l77.79-0.08l0,67.79c0,0,24.04-68.34,144.93-68.34H-2124.61l124.9-133.66
				c0,0,20.15-14.96,41.54-14.96h52.44c8.91,0,16.13,7.57,16.13,16.91v114.88c0,9.34-7.22,16.83-16.13,16.83H-2124.61z"/>
		</g>
	</g>
	<g>
		<polygon class="st1" points="-3897.65,3996.19 -3897.65,4529.88 -3722.36,4529.88 -3627.86,4428.38 -2951.37,4427.76 
			-2951.37,3883.32 -3117.05,3883.32 -3223.6,3996.19 		"/>
		<g>
			<path class="st0" d="M-3650.31,4128.8c12.84-13.76,29.27-21.34,46.28-21.34l631.2,0c11.85,0,21.46-8,21.46-17.86v-112.97
				c0-9.86-9.61-17.86-21.46-17.86h-205.09c-6.59,0-12.71,2.49-16.77,6.81l-26.96,28.55l-207.57,221.47
				c-16.3,15.81-31.57,22.58-73.51,22.58h-248.61L-3650.31,4128.8z"/>
			<path class="st0" d="M-3517.8,4310.37l-89.89,96.38l-25.02,26.82c-4.5,4.83-10.81,7.57-17.41,7.57h-36.26h-195.14
				c-8.91,0-16.13-7.57-16.13-16.91v-26.67V4311l77.79-0.08l0,67.79c0,0,24.04-68.34,144.93-68.34H-3517.8l124.9-133.66
				c0,0,20.15-14.96,41.54-14.96h52.44c8.91,0,16.13,7.57,16.13,16.91v114.88c0,9.34-7.22,16.83-16.13,16.83H-3517.8z"/>
		</g>
	</g>
	<g>
		<polygon class="st1" points="-3897.65,4918.37 -3897.65,5452.07 -3722.36,5452.07 -3627.86,5350.56 -2951.37,5349.94 
			-2951.37,4805.5 -3117.05,4805.5 -3223.6,4918.37 		"/>
		<g>
			<path class="st7" d="M-3650.31,5050.98c12.84-13.76,29.27-21.34,46.28-21.34h631.2c11.85,0,21.46-8,21.46-17.86v-112.97
				c0-9.86-9.61-17.86-21.46-17.86h-205.09c-6.59,0-12.71,2.49-16.77,6.81l-26.96,28.55l-207.57,221.47
				c-16.3,15.81-31.57,22.58-73.51,22.58h-248.61L-3650.31,5050.98z"/>
			<path class="st7" d="M-3517.8,5232.55l-89.89,96.38l-25.02,26.82c-4.5,4.83-10.81,7.57-17.41,7.57h-36.26h-195.14
				c-8.91,0-16.13-7.57-16.13-16.91v-26.67v-86.57l77.79-0.08l0,67.79c0,0,24.04-68.34,144.93-68.34H-3517.8l124.9-133.66
				c0,0,20.15-14.96,41.54-14.96h52.44c8.91,0,16.13,7.57,16.13,16.91v114.88c0,9.34-7.22,16.83-16.13,16.83H-3517.8z"/>
		</g>
	</g>
	<g>
		<polygon class="st1" points="-2504.45,4918.37 -2504.45,5452.07 -2329.16,5452.07 -2234.66,5350.56 -1558.18,5349.94 
			-1558.18,4805.5 -1723.85,4805.5 -1830.4,4918.37 		"/>
		<g>
			<path class="st0" d="M-2257.12,5050.98c12.84-13.76,29.27-21.34,46.28-21.34h631.2c11.85,0,21.46-8,21.46-17.86v-112.97
				c0-9.86-9.61-17.86-21.46-17.86h-205.09c-6.59,0-12.71,2.49-16.77,6.81l-26.96,28.55l-207.57,221.47
				c-16.3,15.81-31.57,22.58-73.51,22.58h-248.61L-2257.12,5050.98z"/>
			<path class="st0" d="M-2124.61,5232.55l-89.89,96.38l-25.02,26.82c-4.5,4.83-10.81,7.57-17.41,7.57h-36.26h-195.14
				c-8.91,0-16.13-7.57-16.13-16.91v-26.67v-86.57l77.79-0.08l0,67.79c0,0,24.04-68.34,144.93-68.34H-2124.61l124.9-133.66
				c0,0,20.15-14.96,41.54-14.96h52.44c8.91,0,16.13,7.57,16.13,16.91v114.88c0,9.34-7.22,16.83-16.13,16.83H-2124.61z"/>
		</g>
	</g>
	<g>
		<polygon class="st0" points="-2504.45,3996.19 -2504.45,4529.88 -2329.16,4529.88 -2234.66,4428.38 -1558.18,4427.76 
			-1558.18,3883.32 -1723.85,3883.32 -1830.4,3996.19 		"/>
		<g>
			<path class="st7" d="M-2257.12,4128.8c12.84-13.76,29.27-21.34,46.28-21.34l631.2,0c11.85,0,21.46-8,21.46-17.86v-112.97
				c0-9.86-9.61-17.86-21.46-17.86h-205.09c-6.59,0-12.71,2.49-16.77,6.81l-26.96,28.55l-207.57,221.47
				c-16.3,15.81-31.57,22.58-73.51,22.58h-248.61L-2257.12,4128.8z"/>
			<path class="st7" d="M-2124.61,4310.37l-89.89,96.38l-25.02,26.82c-4.5,4.83-10.81,7.57-17.41,7.57h-36.26h-195.14
				c-8.91,0-16.13-7.57-16.13-16.91v-26.67V4311l77.79-0.08l0,67.79c0,0,24.04-68.34,144.93-68.34H-2124.61l124.9-133.66
				c0,0,20.15-14.96,41.54-14.96h52.44c8.91,0,16.13,7.57,16.13,16.91v114.88c0,9.34-7.22,16.83-16.13,16.83H-2124.61z"/>
		</g>
	</g>
</g>
</svg>
